<svg width="35" height="35" viewBox="0 0 35 35" fill="none" xmlns="http://www.w3.org/2000/svg">
<path d="M17.1644 8.25259C16.7516 7.88567 16.1195 7.92285 15.7526 8.33564C15.3857 8.74842 15.4229 9.38049 15.8356 9.74741L17.1644 8.25259ZM25.5 17L26.1644 17.7474C26.3779 17.5576 26.5 17.2856 26.5 17C26.5 16.7144 26.3779 16.4424 26.1644 16.2526L25.5 17ZM15.8356 24.2526C15.4229 24.6195 15.3857 25.2516 15.7526 25.6644C16.1195 26.0771 16.7516 26.1143 17.1644 25.7474L15.8356 24.2526ZM11.6644 8.25259C11.2516 7.88567 10.6195 7.92285 10.2526 8.33564C9.88567 8.74842 9.92285 9.38049 10.3356 9.74741L11.6644 8.25259ZM20 17L20.6644 17.7474C20.8779 17.5576 21 17.2856 21 17C21 16.7144 20.8779 16.4424 20.6644 16.2526L20 17ZM10.3356 24.2526C9.92285 24.6195 9.88567 25.2516 10.2526 25.6644C10.6195 26.0771 11.2516 26.1143 11.6644 25.7474L10.3356 24.2526ZM15.8356 9.74741L24.8356 17.7474L26.1644 16.2526L17.1644 8.25259L15.8356 9.74741ZM24.8356 16.2526L15.8356 24.2526L17.1644 25.7474L26.1644 17.7474L24.8356 16.2526ZM10.3356 9.74741L19.3356 17.7474L20.6644 16.2526L11.6644 8.25259L10.3356 9.74741ZM19.3356 16.2526L10.3356 24.2526L11.6644 25.7474L20.6644 17.7474L19.3356 16.2526Z" fill="#37BBED"/>
</svg>
