<svg width="51" height="51" viewBox="0 0 51 51" fill="none" xmlns="http://www.w3.org/2000/svg">
<path d="M45.72 44.34L44.39 44C42.1723 43.2865 39.8595 42.9123 37.53 42.89H37.38V39.41C38.2954 39.3278 39.1857 39.0662 40 38.64C41.0216 38.1097 41.8807 37.313 42.4863 36.3341C43.0919 35.3553 43.4214 34.2309 43.44 33.08C43.65 28.08 40.44 20.57 38.3 18.3C37.9764 17.8954 37.5122 17.6276 37 17.55C35.77 17.55 34.39 19.55 33.22 22.32C32 13.84 28.64 4 26 4C23.36 4 20.63 11.7 19.2 19.65C18.4779 17.9897 17.5178 16.4435 16.35 15.06C15.9621 14.5656 15.3938 14.2455 14.77 14.17C11.53 14.17 7.36997 26.17 7.08997 32.53C6.96482 33.79 7.18878 35.0601 7.73732 36.2013C8.28587 37.3425 9.13785 38.3107 10.2 39C11.3028 39.6777 12.5574 40.0696 13.85 40.14V43.25C12.1591 43.4482 10.487 43.7826 8.84997 44.25C7.58935 44.6425 6.30289 44.9465 4.99997 45.16C4.84212 45.1874 4.69901 45.2696 4.59586 45.3922C4.49272 45.5147 4.43616 45.6698 4.43616 45.83C4.43616 45.9902 4.49272 46.1453 4.59586 46.2678C4.69901 46.3904 4.84212 46.4726 4.99997 46.5H5.09997C6.45341 46.253 7.78952 45.919 9.09997 45.5C11.1176 44.8839 13.2032 44.5178 15.31 44.41C17.9475 44.4202 20.5668 44.8488 23.07 45.68L24.66 46.12C24.7461 46.1389 24.8351 46.1405 24.9218 46.1244C25.0085 46.1084 25.0911 46.0752 25.1647 46.0267C25.2383 45.9782 25.3015 45.9155 25.3505 45.8422C25.3995 45.7689 25.4333 45.6866 25.45 45.6C25.4809 45.4402 25.4535 45.2747 25.3728 45.1334C25.292 44.9921 25.1633 44.8845 25.01 44.83L23.44 44.39C22.55 44.14 21.68 43.89 20.77 43.68C21.77 43.36 22.86 43.05 23.16 42.98C24.2831 42.7324 25.4299 42.6083 26.58 42.61C28.6473 42.6512 30.698 42.988 32.67 43.61L31.67 43.85C31.5558 43.966 31.4918 44.1222 31.4918 44.285C31.4918 44.4478 31.5558 44.604 31.67 44.72C31.7757 44.8242 31.9127 44.8909 32.06 44.91C33.8349 44.4229 35.6481 44.0884 37.48 43.91C39.698 43.9177 41.9 44.2858 44 45L45.34 45.37C45.4845 45.4085 45.6384 45.3879 45.7678 45.3129C45.8972 45.2379 45.9915 45.1145 46.03 44.97C46.0684 44.8255 46.0479 44.6716 45.9729 44.5422C45.8979 44.4128 45.7745 44.3185 45.63 44.28L45.72 44.34ZM14.52 29.43C14.3423 29.43 14.1719 29.5006 14.0462 29.6262C13.9206 29.7519 13.85 29.9223 13.85 30.1V32.8C13.6468 32.8176 13.4443 32.7607 13.28 32.64C13.1946 32.5064 13.1373 32.3568 13.1115 32.2004C13.0857 32.044 13.092 31.8839 13.13 31.73C13.1441 31.6425 13.1404 31.553 13.1192 31.4669C13.0979 31.3808 13.0596 31.2999 13.0064 31.2289C12.9532 31.158 12.8862 31.0985 12.8095 31.054C12.7328 31.0095 12.648 30.981 12.56 30.97C12.385 30.9442 12.207 30.9885 12.0646 31.0934C11.9222 31.1983 11.8271 31.3553 11.8 31.53C11.7151 31.8953 11.7209 32.2757 11.8168 32.6383C11.9126 33.0008 12.0957 33.3344 12.35 33.61C12.7628 33.968 13.2936 34.1604 13.84 34.15V38.79C12.8028 38.7195 11.7979 38.4005 10.91 37.86C10.0515 37.298 9.36608 36.5086 8.92995 35.5798C8.49383 34.6511 8.3242 33.6195 8.43997 32.6C8.75997 25.2 13.28 15.52 14.78 15.52C16.24 15.71 21.41 25.64 21.13 32.52C21.1265 33.6538 20.8111 34.7647 20.2185 35.7312C19.6259 36.6978 18.7788 37.4827 17.77 38C16.971 38.42 16.0983 38.6814 15.2 38.77V36.57C15.7944 36.559 16.3625 36.3232 16.79 35.91C17.0129 35.6653 17.1717 35.3691 17.2519 35.048C17.3322 34.7269 17.3316 34.3908 17.25 34.07C17.213 33.9023 17.1131 33.7552 16.9709 33.6591C16.8286 33.5629 16.6549 33.5251 16.4855 33.5533C16.3162 33.5815 16.1641 33.6737 16.0607 33.8108C15.9573 33.9479 15.9105 34.1194 15.93 34.29C15.9687 34.4031 15.9798 34.5238 15.9624 34.6421C15.9451 34.7604 15.8996 34.8728 15.83 34.97C15.6505 35.1158 15.4306 35.2031 15.2 35.22V30.1C15.2 29.9223 15.1294 29.7519 15.0037 29.6262C14.8781 29.5006 14.7077 29.43 14.53 29.43H14.52ZM25.52 41.3C23.7844 41.4631 22.0693 41.7981 20.4 42.3C20.2 42.3 18.93 42.77 17.61 43.23C16.92 43.17 16.18 43.14 15.38 43.15H15.2V40.15C16.3131 40.0609 17.3974 39.7516 18.39 39.24C19.5919 38.6286 20.6022 37.6979 21.31 36.55C22.5096 37.529 23.9848 38.1093 25.53 38.21L25.52 41.3ZM26.32 23.12C26.1078 23.12 25.9043 23.2043 25.7543 23.3543C25.6043 23.5043 25.52 23.7078 25.52 23.92V30.66C25.2033 30.6581 24.8966 30.5488 24.65 30.35C24.5429 30.2094 24.4685 30.0467 24.4322 29.8737C24.3958 29.7007 24.3985 29.5218 24.44 29.35C24.4656 29.1395 24.4078 28.9274 24.2787 28.7591C24.1497 28.5908 23.9599 28.4799 23.75 28.45C23.5385 28.4271 23.3263 28.4874 23.1584 28.618C22.9905 28.7486 22.8799 28.9394 22.85 29.15C22.7623 29.5713 22.7794 30.0078 22.8997 30.421C23.02 30.8342 23.2398 31.2116 23.54 31.52C24.092 32.0069 24.8039 32.2738 25.54 32.27V36.55C24.2188 36.4477 22.9712 35.9014 22 35C22.2743 34.2315 22.4294 33.4255 22.46 32.61C22.4114 29.02 21.6747 25.4726 20.29 22.16C21.64 13.27 24.85 6.06 26 5.58C27.41 6.46 31.27 16.78 32 25.58C31.2308 27.9879 30.7508 30.4787 30.57 33C30.5512 33.4748 30.578 33.9503 30.65 34.42C29.9704 35.2844 29.0474 35.9253 28 36.26C27.723 36.3513 27.4386 36.4182 27.15 36.46V29C27.7741 28.963 28.3683 28.7204 28.84 28.31C29.179 28.0001 29.4447 27.6184 29.6177 27.1929C29.7907 26.7674 29.8666 26.3086 29.84 25.85C29.84 25.6378 29.7557 25.4343 29.6057 25.2843C29.4556 25.1343 29.2521 25.05 29.04 25.05C28.8278 25.05 28.6243 25.1343 28.4743 25.2843C28.3243 25.4343 28.24 25.6378 28.24 25.85C28.2648 26.0755 28.241 26.3038 28.1703 26.5194C28.0996 26.735 27.9835 26.933 27.83 27.1C27.6505 27.2569 27.427 27.3546 27.19 27.38V23.88C27.1771 23.6695 27.0816 23.4726 26.9243 23.3322C26.767 23.1917 26.5606 23.1191 26.35 23.13L26.32 23.12ZM33.67 42.43C31.5498 41.7431 29.3465 41.3462 27.12 41.25V38.11C27.5738 38.0501 28.022 37.9531 28.46 37.82C29.4549 37.4631 30.3816 36.9389 31.2 36.27C31.6474 37.1736 32.3406 37.9326 33.2 38.46C34.1243 39.051 35.1847 39.3953 36.28 39.46V43L35.59 43.1L33.67 42.46V42.43ZM36.82 30.43C36.6722 30.4326 36.5313 30.4924 36.4268 30.5969C36.3224 30.7013 36.2625 30.8423 36.26 30.99V33.26C36.087 33.2702 35.9163 33.2169 35.78 33.11C35.7108 32.9975 35.6645 32.8724 35.6439 32.742C35.6234 32.6116 35.6288 32.4783 35.66 32.35C35.68 32.2017 35.6409 32.0514 35.5511 31.9316C35.4613 31.8119 35.328 31.7323 35.18 31.71C35.0321 31.6925 34.8831 31.7326 34.764 31.822C34.6448 31.9114 34.5646 32.0431 34.54 32.19C34.4686 32.4955 34.4733 32.8139 34.5535 33.1172C34.6337 33.4206 34.787 33.6996 35 33.93C35.343 34.2366 35.79 34.4011 36.25 34.39V38.3C35.3749 38.2475 34.5265 37.9795 33.78 37.52C33.0566 37.0471 32.4789 36.3823 32.1116 35.6C31.7443 34.8177 31.6018 33.9487 31.7 33.09C31.97 26.85 35.78 18.69 37.04 18.69C38.27 18.85 42.63 27.23 42.39 33.05C42.3823 34.0044 42.1136 34.9385 41.613 35.7511C41.1124 36.5637 40.3989 37.2239 39.55 37.66C38.8738 38.0109 38.1377 38.2314 37.38 38.31V36.44C37.8797 36.4305 38.3577 36.2343 38.72 35.89C38.9086 35.6844 39.043 35.435 39.1111 35.1643C39.1792 34.8937 39.1788 34.6104 39.11 34.34C39.0832 34.1943 38.9998 34.0651 38.8779 33.9807C38.7561 33.8964 38.6058 33.8637 38.46 33.89C38.3116 33.9168 38.1799 34.0013 38.0937 34.125C38.0075 34.2487 37.9738 34.4015 38 34.55C38.0306 34.6438 38.0384 34.7435 38.0228 34.8409C38.0071 34.9383 37.9684 35.0306 37.91 35.11C37.7623 35.2382 37.5754 35.3123 37.38 35.32V31C37.3828 30.8522 37.328 30.709 37.2272 30.6008C37.1265 30.4926 36.9876 30.4278 36.84 30.42L36.82 30.43Z" fill="#008388"/>
</svg>
