<svg width="51" height="51" viewBox="0 0 51 51" fill="none" xmlns="http://www.w3.org/2000/svg">
<path d="M41.64 24.1H26.9V9.36001C26.9 9.05501 26.7788 8.7625 26.5631 8.54683C26.3475 8.33117 26.055 8.21001 25.75 8.21001C25.445 8.21001 25.1525 8.33117 24.9368 8.54683C24.7211 8.7625 24.6 9.05501 24.6 9.36001V24.1H9.85996C9.55496 24.1 9.26246 24.2212 9.04679 24.4368C8.83112 24.6525 8.70996 24.945 8.70996 25.25C8.70996 25.555 8.83112 25.8475 9.04679 26.0632C9.26246 26.2788 9.55496 26.4 9.85996 26.4H24.6V41.14C24.6 41.445 24.7211 41.7375 24.9368 41.9532C25.1525 42.1688 25.445 42.29 25.75 42.29C26.055 42.29 26.3475 42.1688 26.5631 41.9532C26.7788 41.7375 26.9 41.445 26.9 41.14V26.4H41.64C41.945 26.4 42.2375 26.2788 42.4531 26.0632C42.6688 25.8475 42.79 25.555 42.79 25.25C42.79 24.945 42.6688 24.6525 42.4531 24.4368C42.2375 24.2212 41.945 24.1 41.64 24.1Z" fill="#333333"/>
</svg>
