<svg width="51" height="51" viewBox="0 0 51 51" fill="none" xmlns="http://www.w3.org/2000/svg">
<path d="M25.25 42.68C22.39 42.68 19.54 42.68 16.68 42.68C16.0575 42.7209 15.4341 42.6156 14.8595 42.3726C14.285 42.1296 13.7753 41.7556 13.371 41.2805C12.9668 40.8053 12.6794 40.2422 12.5316 39.6362C12.3838 39.0301 12.3798 38.3979 12.52 37.79C13.69 30.85 14.64 23.87 15.65 16.91C15.8835 14.9011 16.7494 13.0185 18.1226 11.5338C19.4959 10.0491 21.3054 9.03925 23.29 8.64999C25.2408 8.26121 27.2638 8.47592 29.0895 9.26554C30.9153 10.0552 32.4572 11.3822 33.51 13.07C34.61 14.84 34.78 16.88 35.08 18.87C36 25.07 36.9 31.27 37.86 37.46C38.38 40.8 36.86 42.67 33.46 42.67L25.25 42.68ZM17.1 21.29C16.73 23.69 16.37 26.01 16.02 28.29C15.53 31.52 15.02 34.74 14.56 37.97C14.3 39.78 14.97 40.55 16.78 40.55H33.78C35.41 40.55 36.1 39.71 35.86 38.12C35.22 33.92 34.61 29.72 33.98 25.52C33.76 24.1 33.53 22.68 33.31 21.26L17.1 21.29ZM33 19.11C33 14.11 29.85 10.59 25.39 10.56C21.65 10.56 17.67 12.9 17.55 19.11H33Z" fill="#6A1B99"/>
<path d="M18.83 36.76C19.33 32.76 19.83 28.69 20.33 24.66C20.43 23.82 20.97 23.34 21.6 23.49C21.7544 23.5186 21.9011 23.5793 22.0305 23.6682C22.16 23.7571 22.2693 23.8723 22.3513 24.0062C22.4333 24.1401 22.4863 24.2898 22.5068 24.4455C22.5272 24.6012 22.5147 24.7594 22.47 24.91C21.9633 28.97 21.4733 33.0633 21 37.19C20.9 38 20.35 38.51 19.73 38.37C18.81 38.17 18.73 37.5 18.83 36.76Z" fill="#6A1B99"/>
<path d="M27.9101 24.87C27.8501 24.17 28.0401 23.57 28.8201 23.49C29.6001 23.41 29.9001 23.94 29.9801 24.65L31.3301 35.42C31.4001 35.97 31.4601 36.53 31.5201 37.09C31.5801 37.65 31.3301 38.26 30.6701 38.35C30.0101 38.44 29.5701 37.95 29.4601 37.35C29.3001 36.45 29.2201 35.53 29.1101 34.62L27.9101 24.87Z" fill="#6A1B99"/>
<path d="M21.93 15.87C22.5264 15.87 23.01 15.3865 23.01 14.79C23.01 14.1935 22.5264 13.71 21.93 13.71C21.3335 13.71 20.85 14.1935 20.85 14.79C20.85 15.3865 21.3335 15.87 21.93 15.87Z" fill="#6A1B99"/>
<path d="M25.21 13.79C25.8065 13.79 26.29 13.3065 26.29 12.71C26.29 12.1135 25.8065 11.63 25.21 11.63C24.6135 11.63 24.13 12.1135 24.13 12.71C24.13 13.3065 24.6135 13.79 25.21 13.79Z" fill="#6A1B99"/>
<path d="M28.41 15.87C29.0064 15.87 29.49 15.3865 29.49 14.79C29.49 14.1935 29.0064 13.71 28.41 13.71C27.8135 13.71 27.33 14.1935 27.33 14.79C27.33 15.3865 27.8135 15.87 28.41 15.87Z" fill="#6A1B99"/>
</svg>
