<svg width="51" height="51" viewBox="0 0 51 51" fill="none" xmlns="http://www.w3.org/2000/svg">
<path d="M39.1 11.6C38.8733 11.5345 38.6299 11.5607 38.4223 11.6729C38.2146 11.7851 38.0594 11.9744 37.99 12.2L36.25 18L33.35 14.41V11.11H34.03C34.2652 11.1048 34.489 11.0076 34.6535 10.8394C34.818 10.6712 34.9101 10.4453 34.91 10.21C34.9197 10.1403 34.9197 10.0697 34.91 10L33.91 6.54C33.8561 6.35333 33.7431 6.18915 33.5881 6.07199C33.4331 5.95483 33.2443 5.89098 33.05 5.89H30.5C30.3921 5.25846 30.0655 4.68501 29.5774 4.27001C29.0892 3.85502 28.4707 3.62492 27.83 3.62H23.62C22.9794 3.62492 22.3608 3.85502 21.8727 4.27001C21.3846 4.68501 21.058 5.25846 20.95 5.89H18.5C18.3057 5.89098 18.117 5.95483 17.9619 6.07199C17.8069 6.18915 17.694 6.35333 17.64 6.54L16.64 10C16.5823 10.2281 16.6172 10.4697 16.7372 10.6721C16.8571 10.8744 17.0523 11.0211 17.28 11.08C17.353 11.0898 17.427 11.0898 17.5 11.08H18.18V14.34L15.27 18L13.5 12.2C13.4324 11.9732 13.2775 11.7826 13.0693 11.6701C12.8611 11.5576 12.6168 11.5324 12.39 11.6C12.1633 11.6676 11.9727 11.8226 11.8601 12.0307C11.7476 12.2389 11.7224 12.4832 11.79 12.71L14.01 20V43.52C13.9728 43.7057 13.9965 43.8984 14.0776 44.0696C14.1587 44.2407 14.2928 44.3811 14.46 44.47C18.0309 46.1392 21.9393 46.9606 25.88 46.87C29.723 46.9578 33.5367 46.1821 37.04 44.6C37.2196 44.5106 37.3637 44.3633 37.449 44.1818C37.5343 44.0003 37.5558 43.7953 37.51 43.6V20.1C37.52 20.027 37.52 19.953 37.51 19.88L39.68 12.71C39.7464 12.4859 39.723 12.2447 39.6148 12.0376C39.5065 11.8304 39.3219 11.6735 39.1 11.6ZM23.62 4.78H27.9C28.2251 4.78262 28.5409 4.88872 28.8016 5.08291C29.0623 5.2771 29.2544 5.54928 29.35 5.86H22.17C22.2656 5.54928 22.4577 5.2771 22.7184 5.08291C22.9792 4.88872 23.2949 4.78262 23.62 4.78ZM19.16 7.65H32.36L32.84 9.31999H18.68L19.16 7.65ZM19.76 15.25C19.8784 15.0868 19.9446 14.8915 19.95 14.69V11.11H31.5V14.69C31.4988 14.8944 31.5697 15.0926 31.7 15.25L35.21 19.59C32.211 20.7222 29.0253 21.2786 25.82 21.23C22.5498 21.2802 19.3005 20.6996 16.25 19.52L19.76 15.25ZM35.76 43.25C32.6381 44.5221 29.2907 45.148 25.92 45.09C22.4562 45.1459 19.0201 44.4641 15.84 43.09V24.37C17.9679 25.2374 20.212 25.7866 22.5 26C22.6485 26.008 22.7941 25.9566 22.9048 25.8572C23.0154 25.7578 23.0821 25.6185 23.09 25.47C23.098 25.3215 23.0466 25.1759 22.9472 25.0652C22.8478 24.9546 22.7085 24.8879 22.56 24.88C20.2008 24.6546 17.8939 24.0466 15.73 23.08V21.23C18.9692 22.4629 22.4147 23.0638 25.88 23C29.2364 23.0516 32.5732 22.4786 35.72 21.31L35.76 43.25Z" fill="#2E7D33"/>
</svg>
