<svg width="51" height="51" viewBox="0 0 51 51" fill="none" xmlns="http://www.w3.org/2000/svg">
<path d="M9.45 16.56C8 15.7 6.53 14.89 5.12 14C3.93 13.24 3.95 12.5 5.12 11.66C7.01469 10.1726 9.24752 9.17644 11.62 8.75999C13.2757 8.54777 14.9571 8.66561 16.5671 9.10672C18.177 9.54782 19.6837 10.3035 21 11.33C21.1763 11.4923 21.4011 11.592 21.6397 11.6137C21.8783 11.6354 22.1174 11.5778 22.32 11.45C26.1717 9.52601 30.4247 8.54246 34.73 8.57999H45.2C45.5193 8.53209 45.8457 8.57723 46.14 8.70999C46.4571 8.93547 46.6727 9.27676 46.74 9.65999C46.7075 9.83672 46.6382 10.0046 46.5366 10.1528C46.4349 10.301 46.3032 10.4261 46.15 10.52C45.8504 10.6465 45.5226 10.6914 45.2 10.65C41.59 10.65 37.98 10.65 34.37 10.65C30.3604 10.6133 26.4047 11.5756 22.86 13.45C21.19 14.33 19.53 15.24 17.86 16.08C17.5627 16.2046 17.309 16.4145 17.131 16.6833C16.953 16.9521 16.8587 17.2676 16.86 17.59C16.7094 19.7629 15.9351 21.8462 14.63 23.59C12.9743 25.678 10.5645 27.0319 7.92 27.36C7.10548 27.4944 6.28428 27.5845 5.46 27.63C5.29661 27.667 5.12652 27.6625 4.96536 27.6166C4.8042 27.5708 4.65714 27.4853 4.53767 27.3678C4.41821 27.2503 4.33018 27.1047 4.28166 26.9443C4.23314 26.784 4.22569 26.614 4.26 26.45C4.42 22.45 5.54 18.93 9.26 16.74C9.3315 16.6892 9.39547 16.6286 9.45 16.56ZM6.45 25.5C11.24 25.35 15.56 20.92 14.62 17.2C9.83 17.53 6.57 20.82 6.47 25.5H6.45ZM7.2 12.83C8.91927 14.2121 11.0591 14.9656 13.265 14.9656C15.4709 14.9656 17.6107 14.2121 19.33 12.83C17.6116 11.4546 15.4761 10.7052 13.275 10.7052C11.0739 10.7052 8.93844 11.4546 7.22 12.83H7.2Z" fill="#6EA100"/>
<path d="M36.08 30C36.181 33.431 35.0692 36.7878 32.94 39.48C29.44 43.7 23.94 43.71 20.36 39.48C18.0513 36.6511 16.8975 33.054 17.13 29.41C17.0808 26.1251 18.1689 22.9243 20.21 20.35C20.9446 19.3573 21.9006 18.5497 23.002 17.9913C24.1035 17.4329 25.32 17.1391 26.5549 17.1333C27.7898 17.1274 29.0091 17.4097 30.1157 17.9577C31.2224 18.5057 32.186 19.3043 32.93 20.29C35.1125 23.0431 36.2307 26.49 36.08 30ZM34 30.16C34.137 27.1536 33.2211 24.1936 31.41 21.79C28.72 18.36 24.54 18.36 21.82 21.79C21.5741 22.0879 21.3534 22.4057 21.16 22.74C19.8273 24.9262 19.1282 27.4396 19.1406 29.9999C19.1529 32.5602 19.8763 35.0668 21.23 37.24C23.82 41.71 29.35 41.63 32.05 37.24C33.335 35.1027 34.0094 32.6539 34 30.16Z" fill="#6EA100"/>
<path d="M46.77 31.78C46.66 35.2 45.62 38.14 42.36 39.7C41.1201 40.1565 39.8192 40.4261 38.5 40.5C38.2348 40.5 37.9805 40.3946 37.7929 40.2071C37.6054 40.0196 37.5 39.7652 37.5 39.5C37.5 39.2348 37.6054 38.9804 37.7929 38.7929C37.9805 38.6053 38.2348 38.5 38.5 38.5C42.5 38.84 45.34 35.08 44.7 30.74C44.4413 28.3047 43.5141 25.9883 42.0211 24.0471C40.5281 22.1058 38.5273 20.6152 36.24 19.74L35.99 19.64C35.39 19.36 34.99 18.94 35.27 18.24C35.3173 18.097 35.3962 17.9666 35.5009 17.8584C35.6056 17.7502 35.7334 17.6671 35.8747 17.6152C36.016 17.5632 36.1672 17.5439 36.3171 17.5586C36.4669 17.5733 36.6115 17.6216 36.74 17.7C38.2153 18.3622 39.6192 19.173 40.93 20.12C42.7087 21.5075 44.1557 23.2739 45.1659 25.2909C46.1761 27.3079 46.7241 29.5246 46.77 31.78Z" fill="#6EA100"/>
<path d="M9.45 16.56C8 15.7 6.53 14.89 5.12 14C3.93 13.24 3.95 12.5 5.12 11.66C7.01469 10.1726 9.24752 9.17644 11.62 8.75999C13.2757 8.54777 14.9571 8.66561 16.5671 9.10672C18.177 9.54782 19.6837 10.3035 21 11.33C21.1763 11.4923 21.4011 11.592 21.6397 11.6137C21.8783 11.6354 22.1174 11.5778 22.32 11.45C26.1717 9.52601 30.4247 8.54246 34.73 8.57999H45.2C45.5193 8.53209 45.8457 8.57723 46.14 8.70999C46.4571 8.93547 46.6727 9.27676 46.74 9.65999C46.7075 9.83672 46.6382 10.0046 46.5366 10.1528C46.4349 10.301 46.3032 10.4261 46.15 10.52C45.8504 10.6465 45.5226 10.6914 45.2 10.65C41.59 10.65 37.98 10.65 34.37 10.65C30.3604 10.6133 26.4047 11.5756 22.86 13.45C21.19 14.33 19.53 15.24 17.86 16.08C17.5627 16.2046 17.309 16.4145 17.131 16.6833C16.953 16.9521 16.8587 17.2676 16.86 17.59C16.7094 19.7629 15.9351 21.8462 14.63 23.59C12.9743 25.678 10.5645 27.0319 7.92 27.36C7.10548 27.4944 6.28428 27.5845 5.46 27.63C5.29661 27.667 5.12652 27.6625 4.96536 27.6166C4.8042 27.5708 4.65714 27.4853 4.53767 27.3678C4.41821 27.2503 4.33018 27.1047 4.28166 26.9443C4.23314 26.784 4.22569 26.614 4.26 26.45C4.42 22.45 5.54 18.93 9.26 16.74C9.3315 16.6892 9.39547 16.6286 9.45 16.56ZM6.45 25.5C11.24 25.35 15.56 20.92 14.62 17.2C9.83 17.53 6.57 20.82 6.47 25.5H6.45ZM7.2 12.83C8.91927 14.2121 11.0591 14.9656 13.265 14.9656C15.4709 14.9656 17.6107 14.2121 19.33 12.83C17.6116 11.4546 15.4761 10.7052 13.275 10.7052C11.0739 10.7052 8.93844 11.4546 7.22 12.83H7.2Z" fill="#6EA100"/>
<path d="M36.08 30C36.181 33.431 35.0692 36.7878 32.94 39.48C29.44 43.7 23.94 43.71 20.36 39.48C18.0513 36.6511 16.8975 33.054 17.13 29.41C17.0808 26.1251 18.1689 22.9243 20.21 20.35C20.9446 19.3573 21.9006 18.5497 23.002 17.9913C24.1035 17.4329 25.32 17.1391 26.5549 17.1333C27.7898 17.1274 29.0091 17.4097 30.1157 17.9577C31.2224 18.5057 32.186 19.3043 32.93 20.29C35.1125 23.0431 36.2307 26.49 36.08 30ZM34 30.16C34.137 27.1536 33.2211 24.1936 31.41 21.79C28.72 18.36 24.54 18.36 21.82 21.79C21.5741 22.0879 21.3534 22.4057 21.16 22.74C19.8273 24.9262 19.1282 27.4396 19.1406 29.9999C19.1529 32.5602 19.8763 35.0668 21.23 37.24C23.82 41.71 29.35 41.63 32.05 37.24C33.335 35.1027 34.0094 32.6539 34 30.16Z" fill="#6EA100"/>
<path d="M46.77 31.78C46.66 35.2 45.62 38.14 42.36 39.7C41.1201 40.1565 39.8192 40.4261 38.5 40.5C38.2348 40.5 37.9805 40.3946 37.7929 40.2071C37.6054 40.0196 37.5 39.7652 37.5 39.5C37.5 39.2348 37.6054 38.9804 37.7929 38.7929C37.9805 38.6053 38.2348 38.5 38.5 38.5C42.5 38.84 45.34 35.08 44.7 30.74C44.4413 28.3047 43.5141 25.9883 42.0211 24.0471C40.5281 22.1058 38.5273 20.6152 36.24 19.74L35.99 19.64C35.39 19.36 34.99 18.94 35.27 18.24C35.3173 18.097 35.3962 17.9666 35.5009 17.8584C35.6056 17.7502 35.7334 17.6671 35.8747 17.6152C36.016 17.5632 36.1672 17.5439 36.3171 17.5586C36.4669 17.5733 36.6115 17.6216 36.74 17.7C38.2153 18.3622 39.6192 19.173 40.93 20.12C42.7087 21.5075 44.1557 23.2739 45.1659 25.2909C46.1761 27.3079 46.7241 29.5246 46.77 31.78Z" fill="#6EA100"/>
</svg>
