<svg width="51" height="51" viewBox="0 0 51 51" fill="none" xmlns="http://www.w3.org/2000/svg">
<path d="M18.29 13.83C18.8423 13.83 19.29 13.3823 19.29 12.83C19.29 12.2777 18.8423 11.83 18.29 11.83C17.7378 11.83 17.29 12.2777 17.29 12.83C17.29 13.3823 17.7378 13.83 18.29 13.83Z" fill="#F9A822"/>
<path d="M19.9099 24.22C19.7535 24.22 19.6034 24.2822 19.4928 24.3928C19.3821 24.5035 19.3199 24.6535 19.3199 24.81C19.3447 26.6335 19.9782 28.3964 21.1196 29.8187C22.2611 31.241 23.8451 32.241 25.6199 32.66C26.2398 32.8033 26.8737 32.8771 27.5099 32.88C28.5842 32.8787 29.6476 32.6658 30.6395 32.2535C31.6315 31.8412 32.5325 31.2376 33.2912 30.4771C34.0498 29.7166 34.6512 28.8141 35.0611 27.8211C35.471 26.8282 35.6813 25.7642 35.6799 24.69C35.6695 24.1456 35.6092 23.6034 35.4999 23.07C35.4761 22.9676 35.427 22.8727 35.3572 22.7941C35.2873 22.7155 35.1989 22.6557 35.0999 22.62C34.9979 22.5899 34.8898 22.5869 34.7863 22.6115C34.6828 22.6361 34.5875 22.6873 34.5099 22.76C33.1505 24.0232 31.345 24.6949 29.4904 24.6274C27.6359 24.5599 25.884 23.7587 24.6199 22.4C24.1723 21.9302 23.795 21.398 23.4999 20.82C23.4616 20.7507 23.4096 20.6898 23.3472 20.641C23.2848 20.5922 23.2132 20.5564 23.1367 20.5359C23.0601 20.5154 22.9802 20.5105 22.9018 20.5215C22.8233 20.5325 22.7479 20.5592 22.6799 20.6C22.5504 20.6721 22.4528 20.7903 22.4065 20.9312C22.3601 21.072 22.3685 21.2251 22.4299 21.36C22.9145 22.3199 23.5836 23.1748 24.399 23.8759C25.2143 24.5769 26.1598 25.1104 27.1815 25.4457C28.2031 25.781 29.2809 25.9115 30.3531 25.8299C31.4252 25.7483 32.4708 25.4561 33.4299 24.97C33.7777 24.7914 34.112 24.5875 34.4299 24.36C34.4608 25.2793 34.3103 26.1956 33.987 27.0567C33.6638 27.9178 33.1741 28.7067 32.5459 29.3786C31.9177 30.0504 31.1633 30.5919 30.3258 30.9722C29.4884 31.3525 28.5842 31.5641 27.6649 31.595C26.7457 31.6259 25.8294 31.4754 24.9683 31.1521C24.1072 30.8288 23.3182 30.3391 22.6464 29.7109C21.2895 28.4422 20.4923 26.6865 20.4299 24.83C20.4337 24.6821 20.3827 24.538 20.2868 24.4254C20.1908 24.3128 20.0566 24.2397 19.9099 24.22Z" fill="#F9A822"/>
<path d="M43.0399 31C42.0126 30.0608 40.7579 29.4059 39.3999 29.1C39.5199 28.71 39.6499 28.32 39.7399 27.91C40.3292 25.1999 40.2607 22.3881 39.5399 19.71C39.1777 18.3398 38.7028 17.0019 38.1199 15.71C37.1799 13.62 36.3099 13.62 36.0199 13.62C35.7224 13.63 35.4352 13.7313 35.1972 13.9102C34.9593 14.0891 34.7822 14.3369 34.6899 14.62L34.3299 15.46C34.0035 16.4391 33.4908 17.3457 32.8199 18.13C32.2662 18.6453 31.5777 18.9931 30.8343 19.1329C30.0909 19.2728 29.3231 19.1989 28.6199 18.92C27.937 18.6681 27.3333 18.2389 26.8711 17.6765C26.4089 17.1142 26.1048 16.4388 25.9899 15.72L25.9099 15.15C25.8534 14.066 26.0701 12.9851 26.5401 12.0066C27.0101 11.0281 27.7184 10.1834 28.5999 9.55C29.1999 9.08 30.7999 8.12 30.2999 7.01C29.7999 5.9 28.7099 6.13 27.7499 6.44L27.8999 6.3C28.2444 6.06134 28.4807 5.69633 28.5575 5.28435C28.6343 4.87237 28.5453 4.44673 28.3099 4.1L28.2399 4C27.5899 3.27 26.1299 3.2 24.5999 4.47L23.3399 5.54C23.2893 5.39407 23.2074 5.26096 23.0999 5.15C22.5499 4.57 21.2999 4.44 20.0999 5.43C19.3676 6.15046 18.72 6.95235 18.1699 7.82C17.4048 7.99807 16.6679 8.28073 15.9799 8.66C15.4835 8.92532 15.0175 9.24386 14.5899 9.61L12.3899 8.61C12.26 8.54773 12.1153 8.52315 11.9721 8.53906C11.8289 8.55497 11.693 8.61073 11.5799 8.7C11.4655 8.78932 11.3779 8.90844 11.3268 9.04427C11.2756 9.1801 11.2629 9.3274 11.2899 9.47L12.0499 13.19C10.5 16.4639 9.85101 20.0918 10.1699 23.7C10.3093 25.623 10.7901 27.5057 11.5899 29.26C10.4354 29.5839 9.37558 30.1807 8.49995 31C7.98105 31.5248 7.57568 32.1507 7.30902 32.8388C7.04237 33.527 6.92014 34.2626 6.94995 35C6.94995 41.63 15.3999 47 25.7899 47C36.1799 47 44.6299 41.6 44.6299 35C44.6516 34.2601 44.5217 33.5236 44.2482 32.8357C43.9748 32.1479 43.5636 31.5232 43.0399 31ZM14.4999 12.44C14.933 11.7237 15.5137 11.108 16.2035 10.6338C16.8932 10.1596 17.6761 9.83785 18.4999 9.69H19.1799C20.287 9.71201 21.3503 10.1267 22.1799 10.86C23.6099 12.08 23.8099 13.48 24.0999 15.42L24.1899 16.01C24.4381 17.5575 25.2907 18.943 26.5603 19.8619C27.8298 20.7808 29.4124 21.1578 30.9599 20.91C32.1106 20.72 33.1809 20.1987 34.0399 19.41C34.8782 18.4602 35.5235 17.3564 35.9399 16.16C35.9399 16.03 36.0499 15.91 36.0999 15.78C36.2303 15.9959 36.3472 16.2197 36.4499 16.45C36.9893 17.6662 37.4307 18.9235 37.7699 20.21C38.4123 22.6141 38.4774 25.136 37.9599 27.57C37.5111 29.6579 36.541 31.5982 35.1399 33.21C32.0534 34.3566 28.7923 34.9621 25.4999 35C22.667 34.9828 19.8537 34.5274 17.1599 33.65C15.6529 32.4289 14.4128 30.9112 13.5166 29.191C12.6204 27.4708 12.0872 25.5848 11.9499 23.65C11.5517 19.7351 12.4474 15.7975 14.4999 12.44ZM25.7499 45.27C22.428 45.301 19.1323 44.6792 16.0499 43.44H16.6599C18.4326 43.4286 20.2004 43.2511 21.9399 42.91L22.6499 42.75C22.9599 42.87 23.2599 43 23.5699 43.11C25.6994 43.9102 27.8989 44.5094 30.1399 44.9C28.6886 45.1382 27.2207 45.2619 25.7499 45.27ZM33.5899 44.11C30.5147 43.9508 27.4809 43.3305 24.5899 42.27C27.1676 41.5745 29.5788 40.3672 31.6799 38.72C31.7949 38.626 31.8686 38.4908 31.8854 38.3433C31.9022 38.1957 31.8608 38.0475 31.7699 37.93C31.6662 37.8153 31.5228 37.7443 31.3688 37.7313C31.2147 37.7183 31.0614 37.7643 30.9399 37.86C28.5283 39.7023 25.7323 40.9773 22.7599 41.59C19.499 40.3495 16.5152 38.477 13.9799 36.08C13.8683 35.973 13.7196 35.9133 13.5649 35.9133C13.4103 35.9133 13.2616 35.973 13.1499 36.08C13.0949 36.1332 13.0511 36.1969 13.0212 36.2673C12.9913 36.3377 12.9759 36.4135 12.9759 36.49C12.9759 36.5665 12.9913 36.6423 13.0212 36.7127C13.0511 36.7831 13.0949 36.8468 13.1499 36.9C15.3678 39.038 17.9479 40.7648 20.7699 42C18.3102 42.4298 15.7963 42.4501 13.3299 42.06C11.5321 40.9974 10.099 39.4143 9.21995 37.52C9.7699 37.9695 10.3667 38.3584 10.9999 38.68C11.067 38.7092 11.1376 38.7293 11.2099 38.74C11.3263 38.7516 11.4434 38.7271 11.5454 38.6698C11.6473 38.6126 11.7292 38.5254 11.7799 38.42C11.8142 38.3538 11.8349 38.2815 11.8409 38.2072C11.8468 38.133 11.8379 38.0583 11.8146 37.9875C11.7914 37.9167 11.7542 37.8513 11.7053 37.795C11.6564 37.7388 11.5968 37.6929 11.5299 37.66C10.4531 37.1212 9.49174 36.3773 8.69995 35.47V35C8.66552 34.4927 8.7366 33.9837 8.90872 33.5052C9.08083 33.0268 9.35024 32.5892 9.69995 32.22C10.4709 31.5422 11.399 31.0678 12.3999 30.84C12.6699 31.29 12.9599 31.73 13.2699 32.15L12.4999 31.76C12.2845 31.7218 12.0624 31.7553 11.8679 31.8554C11.6733 31.9554 11.5169 32.1166 11.4227 32.3141C11.3284 32.5116 11.3016 32.7345 11.3463 32.9488C11.391 33.163 11.5047 33.3566 11.6699 33.5C15.9683 35.6505 20.6944 36.809 25.4999 36.89C30.5131 36.8026 35.4382 35.5568 39.8899 33.25C40.1552 33.197 40.3884 33.0407 40.5385 32.8157C40.6885 32.5906 40.743 32.3152 40.6899 32.05C40.6369 31.7848 40.4807 31.5515 40.2556 31.4015C40.0306 31.2514 39.7552 31.197 39.4899 31.25C39.3207 31.2896 39.1632 31.3684 39.0299 31.48L38.2199 31.85C38.4366 31.4601 38.6335 31.0596 38.8099 30.65C39.7496 30.7993 40.6347 31.1885 41.3799 31.78C41.4266 33.3379 40.904 34.8595 39.9099 36.06C38.8925 37.3047 37.5791 38.2743 36.0899 38.88C36.021 38.9056 35.9578 38.9445 35.9039 38.9946C35.85 39.0446 35.8065 39.1048 35.7758 39.1716C35.7452 39.2385 35.728 39.3108 35.7253 39.3843C35.7226 39.4577 35.7343 39.5311 35.7599 39.6C35.8034 39.7081 35.8778 39.8009 35.9739 39.8668C36.07 39.9326 36.1835 39.9685 36.2999 39.97C36.3631 39.9965 36.4318 40.0069 36.4999 40C38.1774 39.3224 39.6565 38.232 40.7999 36.83C41.6782 35.7767 42.2645 34.5111 42.4999 33.16C42.7454 33.7414 42.8614 34.3693 42.8399 35C42.8399 39 39.0799 42.4 33.5899 44.11Z" fill="#F9A822"/>
<path d="M34.46 41.96C34.8024 41.96 35.08 41.6869 35.08 41.35C35.08 41.0131 34.8024 40.74 34.46 40.74C34.1175 40.74 33.84 41.0131 33.84 41.35C33.84 41.6869 34.1175 41.96 34.46 41.96Z" fill="#F9A822"/>
<path d="M12.5 40.18C12.4932 40.2602 12.5023 40.3409 12.5267 40.4175C12.5512 40.4941 12.5906 40.5652 12.6427 40.6265C12.6947 40.6879 12.7584 40.7383 12.83 40.775C12.9016 40.8116 12.9798 40.8337 13.06 40.84C13.1801 40.8494 13.3003 40.8231 13.4055 40.7643C13.5106 40.7055 13.596 40.6169 13.6509 40.5097C13.7057 40.4024 13.7276 40.2813 13.7137 40.1616C13.6999 40.042 13.6509 39.9291 13.5729 39.8372C13.495 39.7454 13.3916 39.6786 13.2758 39.6455C13.16 39.6123 13.0369 39.6141 12.9222 39.6508C12.8074 39.6875 12.7061 39.7573 12.6309 39.8515C12.5558 39.9456 12.5103 40.06 12.5 40.18Z" fill="#F9A822"/>
</svg>
