<svg width="51" height="51" viewBox="0 0 51 51" fill="none" xmlns="http://www.w3.org/2000/svg">
<path d="M15.5 27.41C15.5 24 15.5 20.6 15.5 17.19C15.4481 16.5658 15.5332 15.9378 15.7493 15.3499C15.9654 14.762 16.3074 14.2285 16.7512 13.7865C17.1951 13.3446 17.7301 13.005 18.3189 12.7914C18.9077 12.5778 19.5361 12.4954 20.16 12.55C24.16 12.55 28.13 12.55 32.07 12.55C32.6952 12.496 33.3246 12.5786 33.9148 12.792C34.5049 13.0054 35.0415 13.3445 35.4876 13.7858C35.9337 14.2272 36.2786 14.7602 36.4983 15.348C36.718 15.9358 36.8073 16.5643 36.76 17.19C36.76 24.03 36.76 30.8667 36.76 37.7C36.8071 38.3261 36.7177 38.955 36.4981 39.5432C36.2784 40.1314 35.9338 40.665 35.4879 41.1071C35.042 41.5492 34.5055 41.8892 33.9154 42.1038C33.3253 42.3184 32.6957 42.4024 32.07 42.35H20.13C19.5088 42.3982 18.8846 42.3112 18.3003 42.0949C17.716 41.8787 17.1855 41.5383 16.7454 41.0973C16.3054 40.6562 15.9661 40.125 15.7511 39.5403C15.5361 38.9555 15.4504 38.3311 15.5 37.71C15.5 34.28 15.5 30.84 15.5 27.41ZM34.7 27.51C34.7 24.04 34.7 20.58 34.7 17.11C34.7 15.41 33.91 14.63 32.19 14.63C28.13 14.63 24.07 14.63 20.01 14.63C18.33 14.63 17.58 15.38 17.58 17.08C17.58 23.98 17.58 30.88 17.58 37.78C17.58 39.54 18.32 40.27 20.07 40.27H32.07C33.97 40.27 34.71 39.53 34.71 37.64C34.66 34.26 34.66 30.89 34.66 27.51H34.7Z" fill="#50B7B2"/>
<path d="M26.0399 10.36H20.0899C19.0899 10.36 18.6299 9.99999 18.6799 9.28999C18.7299 8.41999 19.3499 8.28999 20.0599 8.28999H32.0599C33.0599 8.28999 33.5299 8.65999 33.4699 9.35999C33.4099 10.21 32.8099 10.36 32.0799 10.36H26.0399Z" fill="#50B7B2"/>
<path d="M25.03 37.23C24.0085 37.0157 23.0054 36.7214 22.03 36.35C21.1951 35.9679 20.4864 35.3558 19.987 34.5854C19.4875 33.815 19.218 32.9181 19.21 32C19.14 31.06 19.5 30.68 20.43 30.65C22.54 30.57 24.52 30.87 26.02 32.65C26.41 32.31 26.74 31.99 27.11 31.71C28.5578 30.7579 30.3073 30.3767 32.02 30.64C32.74 30.69 33.02 31.21 32.94 31.91C32.91 33.1371 32.4384 34.3122 31.6118 35.2197C30.7852 36.1271 29.659 36.706 28.44 36.85L27.19 37.01C27.01 37.82 27.37 39.01 26.05 39.01C24.73 39.01 25.15 37.89 25.03 37.23ZM21.55 32.8C21.7428 33.4548 22.1658 34.0178 22.741 34.3854C23.3162 34.7529 24.0048 34.9002 24.68 34.8C24.4681 34.1574 24.0411 33.6075 23.4709 33.2431C22.9006 32.8788 22.2222 32.7222 21.55 32.8ZM30.55 32.8C29.8778 32.7222 29.1994 32.8788 28.6292 33.2431C28.059 33.6075 27.6319 34.1574 27.42 34.8C28.0973 34.9081 28.7907 34.7656 29.3705 34.3993C29.9503 34.033 30.3767 33.468 30.57 32.81L30.55 32.8Z" fill="#50B7B2"/>
<path d="M26.07 18.9C26.7507 18.1316 27.6077 17.54 28.5674 17.1759C29.5272 16.8119 30.561 16.6863 31.58 16.81C32.67 16.81 33.02 17.23 32.91 18.29C32.8682 19.5004 32.3786 20.6522 31.5362 21.5223C30.6938 22.3924 29.5584 22.919 28.35 23C26.6869 23.1792 25.0084 23.1591 23.35 22.94C22.1991 22.7514 21.1503 22.1663 20.3852 21.2862C19.62 20.406 19.1867 19.286 19.16 18.12C19.16 17.19 19.46 16.82 20.39 16.78C22.55 16.72 24.5 17.06 26.07 18.9ZM27.44 21C28.1121 21.095 28.7959 20.9453 29.3668 20.5781C29.9377 20.211 30.3576 19.6509 30.55 19C29.878 18.905 29.1941 19.0547 28.6232 19.4219C28.0523 19.789 27.6324 20.3491 27.44 21ZM24.72 21C24.5287 20.3401 24.1031 19.7728 23.5231 19.4045C22.9431 19.0363 22.2486 18.8924 21.57 19C21.7825 19.6464 22.2127 20.199 22.7871 20.5638C23.3615 20.9285 24.0447 21.0826 24.72 21Z" fill="#50B7B2"/>
<path d="M26.14 25.74C26.8194 24.997 27.667 24.4277 28.6118 24.0797C29.5565 23.7317 30.5709 23.6152 31.57 23.74C32.7 23.74 33.03 24.15 32.9 25.29C32.8665 26.4764 32.4009 27.6097 31.5907 28.4771C30.7804 29.3444 29.6814 29.8859 28.5 30C26.837 30.1761 25.1592 30.1593 23.5 29.95C22.3586 29.7802 21.3127 29.2162 20.5437 28.3559C19.7747 27.4956 19.3312 26.3932 19.29 25.24C19.23 24.24 19.56 23.83 20.59 23.79C22.9 23.65 23.6 23.9 26.14 25.74ZM24.72 27.93C24.5325 27.2678 24.1077 26.6978 23.5267 26.3289C22.9456 25.9599 22.2491 25.818 21.57 25.93C21.7808 26.5775 22.2106 27.1313 22.7855 27.4963C23.3603 27.8612 24.0443 28.0146 24.72 27.93ZM27.41 27.93C28.0836 28.0276 28.7699 27.8791 29.3429 27.5118C29.9159 27.1444 30.3374 26.5829 30.53 25.93C29.8578 25.8533 29.1799 26.0116 28.6112 26.378C28.0425 26.7444 27.6181 27.2963 27.41 27.94V27.93Z" fill="#50B7B2"/>
</svg>
