<svg width="51" height="51" viewBox="0 0 51 51" fill="none" xmlns="http://www.w3.org/2000/svg">
<path d="M27.5 43.36H22.91L22.64 43.3C21.26 43.15 19.88 43.07 18.51 42.84C17.549 42.6352 16.5485 42.7258 15.64 43.1C15.0081 43.3324 14.3173 43.3506 13.674 43.1518C13.0307 42.9531 12.4706 42.5484 12.08 42C11.6765 41.4712 11.4513 40.828 11.437 40.163C11.4226 39.4981 11.6197 38.8457 12 38.3C12.14 38.09 12.3 37.88 12.45 37.68C12.6518 37.4109 12.7982 37.1043 12.8806 36.7782C12.963 36.452 12.9798 36.1127 12.93 35.78C12.81 34.78 12.69 33.84 12.62 32.86C12.3931 30.1828 12.5649 27.4867 13.13 24.86C13.35 23.86 13.65 22.94 13.92 21.97H13.82C13.0513 21.7773 12.3818 21.3053 11.942 20.646C11.5022 19.9867 11.3236 19.1873 11.4409 18.4035C11.5582 17.6198 11.9631 16.9077 12.5767 16.4061C13.1902 15.9045 13.9685 15.6492 14.76 15.69H15.63C15.8 15 15.92 14.36 16.12 13.69C16.4539 12.436 17.0659 11.2733 17.9108 10.2882C18.7556 9.30315 19.8115 8.52106 21 8C22.7298 7.26273 24.6241 6.99704 26.49 7.23C28.1444 7.31484 29.7377 7.883 31.0725 8.86413C32.4074 9.84526 33.4252 11.1963 34 12.75C34.39 13.67 34.6 14.67 34.91 15.67H35.91C36.6279 15.6681 37.325 15.9106 37.8867 16.3578C38.4483 16.8049 38.841 17.4299 39 18.13C39 18.35 39.08 18.57 39.12 18.78V19C38.9889 19.5169 38.815 20.022 38.6 20.51C38.3908 20.8835 38.1041 21.208 37.7591 21.4615C37.4142 21.7151 37.0189 21.8919 36.6 21.98C36.8 22.63 37.02 23.25 37.19 23.88C38.095 27.5567 38.275 31.3745 37.72 35.12C37.5948 35.5549 37.5658 36.0118 37.6349 36.459C37.7039 36.9063 37.8695 37.3331 38.12 37.71C38.645 38.3093 38.9915 39.0437 39.12 39.83V40.25C39.0621 40.5883 38.9819 40.9223 38.88 41.25C38.7265 41.6663 38.4874 42.0458 38.178 42.3639C37.8687 42.682 37.496 42.9316 37.084 43.0965C36.6721 43.2615 36.2302 43.3381 35.7868 43.3215C35.3434 43.3049 34.9084 43.1953 34.51 43C33.9484 42.7271 33.3157 42.6362 32.7 42.74C31.7 42.91 30.63 43.06 29.6 43.18C28.9 43.25 28.2 43.29 27.5 43.36ZM35.87 30.77C35.76 29.39 35.69 28.1 35.53 26.82C35.3421 25.2647 34.9278 23.7453 34.3 22.31C34.22 22.14 34.15 22.03 33.92 22.03H16.57C16.4908 22.0177 16.4099 22.0355 16.3433 22.0799C16.2766 22.1244 16.2291 22.1922 16.21 22.27C16 22.85 15.75 23.41 15.58 23.99C14.6091 27.5434 14.4113 31.2637 15 34.9C15.173 35.6503 15.1729 36.4302 14.9997 37.1804C14.8264 37.9306 14.4845 38.6316 14 39.23C13.8984 39.3566 13.8112 39.4941 13.74 39.64C13.6628 39.7765 13.6187 39.9293 13.6114 40.086C13.6042 40.2427 13.6338 40.3989 13.6981 40.542C13.7623 40.6851 13.8593 40.811 13.9813 40.9097C14.1032 41.0084 14.2466 41.077 14.4 41.11C14.6997 41.1465 15.0037 41.1016 15.28 40.98C16.1084 40.6132 17.0209 40.4784 17.92 40.59C19.61 40.81 21.3 41.08 22.99 41.18C25.8795 41.3734 28.7817 41.2358 31.64 40.77C32.4002 40.554 33.1966 40.4961 33.98 40.6C34.49 40.72 34.98 40.91 35.48 41.08C35.6885 41.1631 35.9175 41.1799 36.1359 41.128C36.3542 41.0761 36.5512 40.9581 36.7 40.79C36.8455 40.6261 36.9332 40.4188 36.9495 40.2002C36.9657 39.9816 36.9097 39.7637 36.79 39.58C36.6584 39.3567 36.5113 39.1429 36.35 38.94C35.9673 38.4619 35.6902 37.9081 35.5368 37.3153C35.3834 36.7224 35.3572 36.1037 35.46 35.5C35.6 33.9 35.73 32.3 35.87 30.77ZM32.64 15.65C32.55 15.24 32.47 14.85 32.36 14.47C32.097 13.3967 31.5708 12.4058 30.8287 11.587C30.0867 10.7681 29.1523 10.1471 28.11 9.78C26.8239 9.3462 25.4548 9.21614 24.11 9.4C22.9342 9.48306 21.8032 9.88425 20.8379 10.5607C19.8726 11.2371 19.1094 12.1632 18.63 13.24C18.2656 14.0016 18.0195 14.8142 17.9 15.65H32.64ZM25.25 19.92H35.93C36.0693 19.9123 36.2057 19.8773 36.3314 19.8168C36.457 19.7563 36.5696 19.6716 36.6625 19.5676C36.7554 19.4635 36.8268 19.3422 36.8727 19.2104C36.9186 19.0787 36.9381 18.9393 36.93 18.8C36.92 18.6562 36.8812 18.5159 36.8161 18.3873C36.751 18.2586 36.6608 18.1444 36.5508 18.0512C36.4409 17.958 36.3134 17.8878 36.1758 17.8446C36.0383 17.8015 35.8935 17.7863 35.75 17.8H14.54C14.4008 17.8131 14.2655 17.8536 14.142 17.919C14.0184 17.9844 13.9089 18.0735 13.8197 18.1812C13.6397 18.3987 13.5535 18.6789 13.58 18.96C13.6065 19.2411 13.7436 19.5002 13.9612 19.6802C14.1787 19.8603 14.4589 19.9465 14.74 19.92H25.25Z" fill="#CDDC39"/>
<path d="M17.84 27.36H32.63V35.84H17.84V27.36ZM20 29.49V33.71H30.52V29.49H20Z" fill="#CDDC39"/>
</svg>
