<svg width="51" height="51" viewBox="0 0 51 51" fill="none" xmlns="http://www.w3.org/2000/svg">
<path d="M31.65 29.59C30.93 29.59 30.21 29.59 29.5 29.59C29.2448 29.6104 28.9881 29.579 28.7453 29.4977C28.5025 29.4164 28.2786 29.2869 28.0871 29.1169C27.8957 28.9469 27.7405 28.74 27.631 28.5085C27.5216 28.2771 27.46 28.0259 27.45 27.77C27.37 26.0967 27.37 24.43 27.45 22.77C27.442 22.5421 27.4796 22.3149 27.5607 22.1018C27.6418 21.8887 27.7647 21.6939 27.9222 21.529C28.0796 21.3641 28.2685 21.2323 28.4777 21.1415C28.6868 21.0506 28.912 21.0025 29.14 21C30.8688 20.91 32.6012 20.91 34.33 21C34.7748 21.0104 35.1981 21.1938 35.5099 21.5112C35.8217 21.8286 35.9975 22.2551 36 22.7C36.08 24.4 36.08 26.11 36 27.8C35.9665 28.2997 35.7382 28.7662 35.3641 29.0991C34.99 29.432 34.5002 29.6047 34 29.58C33.21 29.6 32.43 29.59 31.65 29.59ZM33.75 27.29V23.18H29.66V27.29H33.75Z" fill="#9284BE"/>
<path d="M14.39 40.37C13.67 40.37 12.95 40.37 12.23 40.37C11.9782 40.3862 11.7257 40.3516 11.4875 40.2682C11.2494 40.1847 11.0305 40.0542 10.8438 39.8844C10.6572 39.7145 10.5067 39.5089 10.4012 39.2796C10.2958 39.0504 10.2375 38.8022 10.23 38.55C10.1453 36.8844 10.1453 35.2156 10.23 33.55C10.2192 33.3218 10.2546 33.0938 10.3339 32.8795C10.4133 32.6653 10.535 32.4692 10.6918 32.3031C10.8486 32.1369 11.0373 32.0041 11.2466 31.9125C11.4559 31.8209 11.6815 31.7724 11.91 31.77C13.6422 31.68 15.3778 31.68 17.11 31.77C17.554 31.7855 17.9747 31.9722 18.2842 32.2909C18.5936 32.6097 18.7677 33.0358 18.77 33.48C18.85 35.18 18.86 36.89 18.77 38.59C18.7316 39.0878 18.5018 39.5513 18.1288 39.8832C17.7559 40.2151 17.2689 40.3896 16.77 40.37C15.94 40.39 15.17 40.37 14.39 40.37ZM16.48 38.09V34H12.4V38.12L16.48 38.09Z" fill="#9284BE"/>
<path d="M25.25 40.37C24.48 40.37 23.7 40.37 22.92 40.37C22.4342 40.3891 21.9605 40.2162 21.6012 39.8887C21.2419 39.5612 21.0259 39.1055 21 38.62C20.91 36.93 20.91 35.22 21 33.52C20.9933 33.2921 21.0323 33.0652 21.1146 32.8526C21.1969 32.64 21.3209 32.446 21.4793 32.282C21.6377 32.118 21.8273 31.9873 22.0369 31.8977C22.2466 31.8081 22.472 31.7612 22.7 31.76C24.3988 31.67 26.1012 31.67 27.8 31.76C28.2624 31.76 28.706 31.943 29.0339 32.269C29.3618 32.5951 29.5474 33.0376 29.55 33.5C29.62 35.19 29.63 36.9 29.55 38.6C29.5067 39.095 29.2752 39.5546 28.9031 39.884C28.5309 40.2133 28.0466 40.3873 27.55 40.37H25.25ZM23.2 33.94V38.08H27.27V33.94H23.2Z" fill="#9284BE"/>
<path d="M36 40.37C35.26 40.37 34.51 40.37 33.76 40.37C33.5098 40.3862 33.2589 40.3522 33.022 40.27C32.7852 40.1878 32.5671 40.0591 32.3808 39.8913C32.1944 39.7236 32.0435 39.5203 31.9369 39.2934C31.8303 39.0665 31.7701 38.8205 31.76 38.57C31.68 36.91 31.67 35.23 31.76 33.57C31.7519 33.3343 31.7915 33.0995 31.8764 32.8795C31.9614 32.6596 32.0899 32.459 32.2543 32.29C32.4187 32.1209 32.6155 31.9868 32.833 31.8958C33.0505 31.8047 33.2842 31.7585 33.52 31.76C35.1854 31.6704 36.8545 31.6704 38.52 31.76C38.7641 31.7612 39.0056 31.8114 39.2299 31.9079C39.4542 32.0043 39.6569 32.1448 39.8258 32.3212C39.9947 32.4975 40.1263 32.706 40.2129 32.9343C40.2996 33.1626 40.3394 33.406 40.33 33.65C40.4 35.26 40.4 36.87 40.33 38.48C40.3041 39.0089 40.0695 39.5058 39.6777 39.862C39.2859 40.2182 38.7689 40.4045 38.24 40.38C37.49 40.39 36.74 40.37 36 40.37ZM34 38.08H38.1V34H34V38.08Z" fill="#9284BE"/>
<path d="M27.38 18.8H25.23C24.9671 18.8263 24.7015 18.7978 24.4501 18.7162C24.1987 18.6346 23.967 18.5017 23.7696 18.3259C23.5722 18.1502 23.4135 17.9353 23.3034 17.6951C23.1933 17.4548 23.1343 17.1943 23.13 16.93C23.05 15.26 23.06 13.59 23.13 11.93C23.126 11.7012 23.1679 11.474 23.2533 11.2617C23.3387 11.0495 23.4658 10.8565 23.6271 10.6942C23.7885 10.532 23.9807 10.4037 24.1925 10.3171C24.4043 10.2305 24.6313 10.1873 24.86 10.19C26.55 10.11 28.26 10.11 29.96 10.19C30.1929 10.1939 30.4227 10.2439 30.636 10.3373C30.8494 10.4306 31.0422 10.5653 31.2031 10.7337C31.364 10.902 31.4899 11.1007 31.5735 11.318C31.6571 11.5354 31.6967 11.7672 31.69 12C31.77 13.6667 31.77 15.3333 31.69 17C31.6616 17.5058 31.4364 17.9803 31.0627 18.3223C30.689 18.6643 30.1963 18.8465 29.69 18.83H27.38V18.8ZM25.38 16.51H29.45V12.4H25.35L25.38 16.51Z" fill="#9284BE"/>
<path d="M24.88 25.47C24.8681 25.8536 24.7556 26.2274 24.5538 26.5538C24.3519 26.8803 24.0679 27.1479 23.73 27.33C22.55 28.03 21.37 28.75 20.15 29.4C19.8738 29.5729 19.5637 29.6845 19.2407 29.7274C18.9177 29.7703 18.5892 29.7435 18.2774 29.6487C17.9657 29.554 17.6778 29.3935 17.4333 29.1781C17.1888 28.9627 16.9933 28.6973 16.86 28.4C16.1933 27.2933 15.5633 26.1733 14.97 25.04C14.7967 24.774 14.6806 24.4749 14.6291 24.1616C14.5776 23.8483 14.5918 23.5277 14.6708 23.2202C14.7498 22.9127 14.8918 22.625 15.0879 22.3754C15.2841 22.1257 15.53 21.9196 15.81 21.77C16.93 21.08 18.07 20.41 19.22 19.77C19.4853 19.6096 19.7799 19.5035 20.0866 19.4579C20.3933 19.4123 20.706 19.4281 21.0065 19.5044C21.3071 19.5807 21.5894 19.7159 21.8372 19.9023C22.085 20.0887 22.2933 20.3224 22.45 20.59C23.21 21.78 23.9 23 24.57 24.24C24.7244 24.6354 24.8286 25.0486 24.88 25.47ZM16.88 23.86L19 27.48L22.63 25.37L20.5 21.75L16.88 23.86Z" fill="#9284BE"/>
</svg>
