<svg width="51" height="51" viewBox="0 0 51 51" fill="none" xmlns="http://www.w3.org/2000/svg">
<path d="M19.8401 38.56C20.4089 38.56 20.8701 38.0989 20.8701 37.53C20.8701 36.9611 20.4089 36.5 19.8401 36.5C19.2712 36.5 18.8101 36.9611 18.8101 37.53C18.8101 38.0989 19.2712 38.56 19.8401 38.56Z" fill="#085486"/>
<path d="M30.74 38.56C31.3088 38.56 31.77 38.0989 31.77 37.53C31.77 36.9611 31.3088 36.5 30.74 36.5C30.1711 36.5 29.71 36.9611 29.71 37.53C29.71 38.0989 30.1711 38.56 30.74 38.56Z" fill="#085486"/>
<path d="M32.29 22.36C32.8589 22.36 33.32 21.8988 33.32 21.33C33.32 20.7611 32.8589 20.3 32.29 20.3C31.7212 20.3 31.26 20.7611 31.26 21.33C31.26 21.8988 31.7212 22.36 32.29 22.36Z" fill="#085486"/>
<path d="M18.29 22.36C18.8589 22.36 19.32 21.8988 19.32 21.33C19.32 20.7611 18.8589 20.3 18.29 20.3C17.7212 20.3 17.26 20.7611 17.26 21.33C17.26 21.8988 17.7212 22.36 18.29 22.36Z" fill="#085486"/>
<path d="M48.8299 14.8C48.4699 14.32 45.1799 10.1 41.4799 10.1H41.4199C40.1186 10.1875 38.8427 10.5023 37.6499 11.03C36.9674 11.3405 36.243 11.5494 35.4999 11.65C35.4333 11.6582 35.3656 11.6518 35.3016 11.631C35.2377 11.6103 35.1791 11.5758 35.1299 11.53C33.7557 10.2174 32.1998 9.1094 30.5099 8.24001L30.3899 8.17001C28.7581 7.36919 26.9764 6.91951 25.1599 6.85001C24.1419 6.87215 23.1321 7.03709 22.1599 7.34001C19.6247 8.24543 17.3153 9.68841 15.3899 11.57C15.2943 11.6387 15.1772 11.6706 15.0599 11.66C14.3202 11.551 13.6017 11.3284 12.9299 11C11.7372 10.4723 10.4613 10.1575 9.15995 10.07H9.05995C5.34995 10.07 2.05995 14.29 1.70995 14.77C1.44055 15.1272 1.31383 15.5719 1.3545 16.0175C1.39518 16.463 1.60032 16.8775 1.92995 17.18C3.57387 18.7403 5.6789 19.7261 7.92995 19.99H8.21995C9.98967 19.8812 11.7184 19.4116 13.2999 18.61L16.4899 31.85C15.9214 32.3988 15.4737 33.0603 15.1758 33.7922C14.8779 34.5241 14.7362 35.3102 14.7599 36.1C14.6599 38.75 15.2799 40.82 16.5499 42.1C17.0791 42.6103 17.7067 43.0073 18.3945 43.2669C19.0822 43.5265 19.8156 43.6433 20.5499 43.61H29.8899C30.6236 43.6452 31.3568 43.5303 32.0446 43.2724C32.7324 43.0145 33.3603 42.6189 33.8899 42.11C35.1599 40.83 35.7699 38.76 35.6799 36.11C35.7065 35.3287 35.571 34.5504 35.2818 33.8241C34.9927 33.0978 34.5562 32.4393 33.9999 31.89L37.1999 18.63C38.7822 19.4282 40.5109 19.8944 42.2799 20H42.5699C44.821 19.7361 46.926 18.7503 48.5699 17.19C48.8996 16.8875 49.1047 16.473 49.1454 16.0275C49.1861 15.5819 49.0593 15.1372 48.7899 14.78L48.8299 14.8ZM42.4899 18.22H42.2799C39.6399 18.22 35.9999 16 35.9999 16L31.9499 32.8C32.1298 32.8568 32.3039 32.9305 32.4699 33.02C32.9633 33.3946 33.3559 33.8858 33.6124 34.4495C33.869 35.0133 33.9816 35.632 33.9399 36.25C34.0199 38.39 33.5799 40 32.6699 40.92C32.3058 41.2651 31.8748 41.5319 31.4036 41.7039C30.9323 41.8759 30.4308 41.9494 29.9299 41.92H20.5699C20.0787 41.9447 19.5875 41.8687 19.1267 41.6968C18.6658 41.5248 18.245 41.2605 17.8899 40.92C16.9799 40 16.5499 38.39 16.6199 36.25C16.5774 35.626 16.6925 35.0012 16.9546 34.4333C17.2167 33.8654 17.6175 33.3725 18.1199 33C18.2808 32.9096 18.4521 32.8391 18.6299 32.79L14.5799 16C14.5799 16 10.9299 18.25 8.28995 18.25H8.05995C6.21999 18.0087 4.5042 17.1893 3.15995 15.91C3.15995 15.91 6.15995 11.91 9.07995 11.91C11.0799 11.91 13.2599 13.46 15.0199 13.46C15.5841 13.4763 16.1338 13.28 16.5599 12.91C17.1098 12.3584 17.7016 11.8502 18.3299 11.39C19.5999 11.54 22.0499 12.08 22.6099 12.66C22.7598 12.809 22.8668 12.9955 22.9199 13.2C22.9387 13.3669 22.9187 13.5358 22.8615 13.6936C22.8043 13.8515 22.7113 13.994 22.5899 14.11C21.9799 14.79 20.9099 15.11 20.5899 15.95C20.517 16.2395 20.5282 16.5438 20.622 16.8272C20.7159 17.1105 20.8886 17.3613 21.1199 17.55C21.5889 17.9221 22.1621 18.1388 22.7599 18.17C23.1964 18.1731 23.6316 18.2166 24.0599 18.3C24.2526 18.3436 24.4321 18.4326 24.5834 18.5595C24.7348 18.6865 24.8536 18.8478 24.9299 19.03C24.9973 19.563 24.8538 20.1013 24.5299 20.53C24.2869 20.9818 24.1597 21.4869 24.1599 22C24.1597 22.2429 24.2133 22.4829 24.3171 22.7025C24.4209 22.9221 24.5721 23.116 24.7599 23.27C25.1299 23.5185 25.5786 23.6218 26.0199 23.56C26.6699 23.5009 27.2841 23.2361 27.7734 22.8042C28.2627 22.3723 28.6017 21.7957 28.741 21.1581C28.8803 20.5204 28.8128 19.855 28.5483 19.2584C28.2838 18.6617 27.836 18.1649 27.2699 17.84C27.0268 17.7268 26.7956 17.5895 26.5799 17.43C26.4717 17.3505 26.3862 17.2441 26.3318 17.1213C26.2774 16.9985 26.2561 16.8636 26.2699 16.73C26.3133 16.598 26.3837 16.4764 26.4767 16.3731C26.5697 16.2698 26.6832 16.187 26.8099 16.13C27.3991 15.7811 28.046 15.5407 28.7199 15.42C29.5713 15.3598 30.4151 15.2192 31.2399 15C31.8003 14.7815 32.282 14.3996 32.6226 13.9038C32.9632 13.4081 33.1469 12.8215 33.15 12.22C33.6499 12.64 33.9499 12.94 33.9699 12.96C34.3961 13.33 34.9458 13.5263 35.5099 13.51C37.2699 13.51 39.4199 11.98 41.4499 11.96C44.3699 11.96 47.3699 15.96 47.3699 15.96C46.0178 17.2024 44.312 17.9924 42.4899 18.22Z" fill="#085486"/>
</svg>
