<svg width="51" height="51" viewBox="0 0 51 51" fill="none" xmlns="http://www.w3.org/2000/svg">
<path d="M18.47 27.73C17.9261 28.1652 17.2953 28.4789 16.62 28.65C15.9427 28.8158 15.2327 28.7905 14.5689 28.5768C13.9051 28.3632 13.3135 27.9697 12.86 27.44L12.79 27.36C11.39 26 9.94001 24.5 7.90001 24.2C8.52357 22.8391 9.50317 21.6718 10.7353 20.8217C11.9675 19.9715 13.4064 19.4699 14.9 19.37C16.9 19.3 19.9 20.7 20.28 23.53C20.2971 23.6502 20.3377 23.7658 20.3994 23.8703C20.4612 23.9747 20.5429 24.066 20.6399 24.1389C20.737 24.2118 20.8474 24.2649 20.965 24.2951C21.0825 24.3253 21.2049 24.3321 21.325 24.315C21.4452 24.2979 21.5608 24.2574 21.6653 24.1956C21.7698 24.1338 21.861 24.0521 21.9339 23.9551C22.0068 23.858 22.0599 23.7476 22.0901 23.6301C22.1203 23.5125 22.1271 23.3902 22.11 23.27C21.59 19.57 17.93 17.4 14.84 17.52C8.01001 17.77 5.74001 24.52 5.65001 24.83C5.61081 24.9449 5.59472 25.0664 5.60269 25.1875C5.61066 25.3086 5.64252 25.427 5.69643 25.5358C5.75034 25.6445 5.82525 25.7415 5.91683 25.8212C6.0084 25.9009 6.11484 25.9616 6.23001 26C6.36843 26.0297 6.51159 26.0297 6.65001 26C8.65001 25.75 9.91001 27 11.52 28.63L11.59 28.7C12.1112 29.2783 12.7461 29.7428 13.455 30.0646C14.1639 30.3863 14.9316 30.5584 15.71 30.57C17.1697 30.5205 18.5737 29.9975 19.71 29.08C19.8013 29.0006 19.876 28.9039 19.9299 28.7956C19.9838 28.6872 20.0159 28.5694 20.0243 28.4486C20.0326 28.3279 20.0171 28.2067 19.9786 28.092C19.9402 27.9773 19.8795 27.8713 19.8 27.78C19.7206 27.6887 19.6239 27.614 19.5156 27.5601C19.4073 27.5062 19.2894 27.4741 19.1687 27.4658C18.9249 27.4489 18.6843 27.5295 18.5 27.69V27.69L18.47 27.73Z" fill="#0072BB"/>
<path d="M44.85 16.6C44.76 16.31 42.48 9.54 35.66 9.29C32.57 9.18 28.91 11.34 28.39 15.04C28.373 15.1602 28.3797 15.2825 28.4099 15.4001C28.4402 15.5176 28.4932 15.628 28.5661 15.7251C28.639 15.8221 28.7303 15.9038 28.8348 15.9656C28.9393 16.0274 29.0549 16.0679 29.175 16.085C29.2952 16.1021 29.4176 16.0953 29.5351 16.0651C29.6526 16.0349 29.7631 15.9818 29.8601 15.9089C29.9572 15.836 30.0389 15.7447 30.1007 15.6403C30.1624 15.5358 30.203 15.4202 30.22 15.3C30.62 12.47 33.6 11.07 35.6 11.14C37.0943 11.2378 38.5341 11.7385 39.7666 12.589C40.9991 13.4394 41.9783 14.6078 42.6 15.97C40.6 16.27 39.11 17.72 37.7 19.13L37.63 19.2C37.1765 19.7297 36.585 20.1232 35.9212 20.3368C35.2574 20.5505 34.5474 20.5758 33.87 20.41C33.1877 20.2416 32.5499 19.9277 32 19.49C31.8144 19.3269 31.5716 19.2442 31.3249 19.2602C31.0783 19.2761 30.8482 19.3894 30.685 19.575C30.5219 19.7607 30.4393 20.0035 30.4552 20.2501C30.4711 20.4967 30.5844 20.7269 30.77 20.89C31.9064 21.8075 33.3104 22.3305 34.77 22.38C35.5485 22.3684 36.3161 22.1963 37.025 21.8746C37.7339 21.5528 38.3688 21.0883 38.89 20.51L38.96 20.44C40.57 18.83 41.8401 17.55 43.8301 17.81C44.065 17.8331 44.2998 17.765 44.4859 17.6198C44.6721 17.4747 44.7953 17.2635 44.8301 17.03C44.8598 16.8916 44.8598 16.7484 44.8301 16.61L44.85 16.6Z" fill="#0072BB"/>
<path d="M36.32 14.05C34.1336 14.2677 32.0534 15.0997 30.32 16.45C28.5132 17.8596 27.0924 19.7035 26.19 21.81C25.7238 22.9551 25.3493 24.1355 25.07 25.34C24.7173 26.8877 24.4734 28.4582 24.34 30.04C23.4377 27.9335 22.0169 26.0896 20.21 24.68C18.4766 23.3297 16.3965 22.4977 14.21 22.28C14.0855 22.2705 13.9602 22.2862 13.8418 22.3261C13.7235 22.3661 13.6143 22.4295 13.521 22.5126C13.4277 22.5957 13.352 22.6967 13.2986 22.8096C13.2452 22.9226 13.2151 23.0451 13.21 23.17C13.1976 23.2952 13.2112 23.4216 13.2501 23.5412C13.2889 23.6609 13.3522 23.7712 13.4358 23.8651C13.5194 23.9591 13.6216 24.0347 13.736 24.0872C13.8503 24.1396 13.9743 24.1678 14.1 24.17C15.9206 24.3572 17.6526 25.05 19.1 26.17C22.48 28.75 24.29 32.59 24.35 38.86V40.32C24.3366 40.4495 24.3504 40.5805 24.3908 40.7043C24.4311 40.8282 24.497 40.9422 24.5842 41.0389C24.6714 41.1357 24.778 41.213 24.897 41.266C25.016 41.3189 25.1448 41.3463 25.275 41.3463C25.4053 41.3463 25.5341 41.3189 25.6531 41.266C25.7721 41.213 25.8787 41.1357 25.9659 41.0389C26.0531 40.9422 26.119 40.8282 26.1593 40.7043C26.1997 40.5805 26.2135 40.4495 26.2 40.32V31.43C26.26 25.22 28.05 20.56 31.37 17.97C32.8306 16.8198 34.5828 16.0995 36.43 15.89C36.5558 15.8878 36.6798 15.8596 36.7941 15.8072C36.9084 15.7547 37.0107 15.6791 37.0943 15.5851C37.1779 15.4911 37.2412 15.3809 37.28 15.2612C37.3189 15.1416 37.3325 15.0152 37.32 14.89C37.315 14.7651 37.2849 14.6426 37.2315 14.5296C37.1781 14.4167 37.1024 14.3157 37.0091 14.2326C36.9157 14.1495 36.8066 14.0861 36.6882 14.0462C36.5699 14.0062 36.4446 13.9905 36.32 14V14.05Z" fill="#0072BB"/>
</svg>
