<svg width="51" height="51" viewBox="0 0 51 51" fill="none" xmlns="http://www.w3.org/2000/svg">
<path d="M42.62 25.5V26.5C42.62 30.2933 42.62 34.0833 42.62 37.87C42.62 39.87 41.91 40.6 39.92 40.6H10.67C8.67002 40.6 8.02002 39.92 8.02002 37.93V25.53L7.23002 25.32C6.6596 25.2079 6.11712 24.9837 5.63406 24.6603C5.151 24.3369 4.73698 23.9208 4.41603 23.4361C4.09508 22.9514 3.87358 22.4078 3.7644 21.8369C3.65522 21.2659 3.66053 20.6789 3.78002 20.11C4.42002 16.53 6.78001 14.33 9.78001 12.69C12.6408 11.1814 15.8258 10.392 19.06 10.39C23.78 10.33 28.51 10.27 33.22 10.56C37.5462 10.6745 41.6501 12.5016 44.63 15.64C45.9774 17.0817 46.7771 18.9499 46.89 20.92C46.9043 21.9038 46.5907 22.8644 45.9986 23.6503C45.4065 24.4361 44.5696 25.0025 43.62 25.26C43.33 25.35 43 25.41 42.62 25.5ZM10.12 38.4H29.68V25.17C29.68 23.51 29.87 23.33 31.56 23.32C33.25 23.31 34.2 22.32 33.93 20.48C33.7547 19.4503 33.3594 18.4706 32.7709 17.6077C32.1824 16.7448 31.4146 16.0191 30.52 15.48C26.8195 13.0355 22.376 11.9733 17.97 12.48C14.5224 12.6548 11.2123 13.8873 8.49002 16.01C7.15826 17.0211 6.23241 18.4755 5.88002 20.11C5.74505 20.489 5.70877 20.8961 5.77459 21.2929C5.84042 21.6898 6.00618 22.0634 6.25626 22.3785C6.50634 22.6936 6.83252 22.9398 7.20406 23.094C7.57561 23.2483 7.9803 23.3054 8.38002 23.26C9.84002 23.26 10.12 23.55 10.12 25V38.4ZM31.85 25.47V38.47H40.44V25.47H31.85ZM29.69 12.47C33.86 15.01 36.99 17.94 35.69 23.34H42.41C44.18 23.34 45.02 22.34 44.76 20.55C44.5056 18.8037 43.5755 17.2272 42.17 16.16C38.6 13.24 34.41 12.39 29.69 12.45V12.47Z" fill="#0072BB"/>
</svg>
