<svg width="51" height="51" viewBox="0 0 51 51" fill="none" xmlns="http://www.w3.org/2000/svg">
<path d="M25.42 18.86C19.76 18.86 13.74 16.97 13.74 13.45C13.74 9.93 19.76 8 25.42 8C31.08 8 37.11 9.9 37.11 13.42C37.11 16.94 31.09 18.86 25.42 18.86ZM25.42 10.03C19.42 10.03 15.74 12.03 15.74 13.45C15.74 14.87 19.42 16.86 25.42 16.86C31.42 16.86 35.11 14.86 35.11 13.45C35.11 12.04 31.42 10 25.42 10V10.03Z" fill="#0072BB"/>
<path d="M15.74 13.45H13.74V37.62H15.74V13.45Z" fill="#0072BB"/>
<path d="M37.11 13.45H35.11V37.62H37.11V13.45Z" fill="#0072BB"/>
<path d="M25.42 43C19.76 43 13.74 41.1 13.74 37.58H15.74C15.74 39 19.42 41 25.42 41C31.42 41 35.11 39 35.11 37.58H37.11C37.11 41.13 31.09 43 25.42 43Z" fill="#0072BB"/>
<path d="M25.42 34.64C24.3915 34.64 23.3861 34.335 22.531 33.7636C21.6759 33.1923 21.0094 32.3801 20.6158 31.4299C20.2222 30.4798 20.1192 29.4342 20.3199 28.4255C20.5205 27.4168 21.0158 26.4903 21.743 25.763C22.4703 25.0358 23.3968 24.5406 24.4055 24.3399C25.4142 24.1393 26.4598 24.2422 27.4099 24.6358C28.3601 25.0294 29.1722 25.6959 29.7436 26.551C30.315 27.4062 30.62 28.4115 30.62 29.44C30.62 30.8191 30.0721 32.1418 29.0969 33.1169C28.1217 34.0921 26.7991 34.64 25.42 34.64V34.64ZM25.42 26.25C24.7866 26.25 24.1676 26.4379 23.6411 26.79C23.1147 27.1421 22.7045 27.6424 22.4626 28.2277C22.2207 28.813 22.1579 29.457 22.2822 30.078C22.4065 30.699 22.7123 31.2691 23.1608 31.7163C23.6093 32.1634 24.1804 32.4674 24.8018 32.5897C25.4232 32.7121 26.067 32.6473 26.6515 32.4035C27.2361 32.1598 27.7351 31.7481 28.0855 31.2205C28.436 30.693 28.622 30.0733 28.62 29.44C28.62 29.0202 28.5371 28.6046 28.3762 28.2169C28.2153 27.8292 27.9794 27.4771 27.6821 27.1808C27.3848 26.8844 27.032 26.6497 26.6438 26.4899C26.2556 26.3302 25.8397 26.2487 25.42 26.25V26.25Z" fill="#0072BB"/>
<path d="M22.2 30.5L21.07 30.3C16.55 29.5 13.74 27.57 13.74 25.25H15.74C15.74 26.16 17.36 27.41 20.41 28.12C20.6961 27.0117 21.3427 26.0301 22.2478 25.3295C23.153 24.6289 24.2654 24.2491 25.41 24.25V26.25C24.582 26.2497 23.7865 26.5723 23.1926 27.1494C22.5988 27.7264 22.2534 28.5123 22.23 29.34L22.2 30.5Z" fill="#0072BB"/>
<path d="M28.64 30.5V29.34C28.6191 28.5115 28.2745 27.7241 27.6801 27.1465C27.0857 26.5689 26.2887 26.2471 25.46 26.25V24.25C26.6041 24.2509 27.7157 24.6312 28.6205 25.3316C29.5253 26.0319 30.1723 27.0126 30.46 28.12C33.46 27.41 35.13 26.12 35.13 25.25H37.13C37.13 27.57 34.32 29.5 29.8 30.3L28.64 30.5Z" fill="#0072BB"/>
</svg>
