<svg width="51" height="51" viewBox="0 0 51 51" fill="none" xmlns="http://www.w3.org/2000/svg">
<path d="M14.71 27.36H36C36.0788 26.0342 35.6855 24.7234 34.89 23.66C33.18 21.43 31.43 19.22 29.68 17.02C28.928 16.13 28.5294 14.9947 28.56 13.83C28.56 13.12 28.76 12.55 29.56 12.51C30.36 12.47 30.56 13 30.67 13.64C30.6876 14.2457 30.8425 14.8394 31.1232 15.3765C31.4038 15.9135 31.8028 16.3797 32.29 16.74C33.63 14.9 35.36 14.04 37.6 14.91C38.3725 15.1939 39.0387 15.7093 39.5076 16.3858C39.9764 17.0623 40.2252 17.8669 40.22 18.69C40.3 20.91 39 22.23 36.93 23C38.23 25.06 38.05 27.33 38.05 29.57C38.05 32.24 38.05 34.91 38.05 37.57C38.05 40.57 36.31 42.28 33.36 42.28H17.17C14.43 42.28 12.61 40.67 12.55 37.96C12.47 34.2 12.55 30.43 12.55 26.67C12.6157 24.7647 13.3201 22.9367 14.55 21.48C15.99 19.67 17.43 17.86 18.9 16.08C19.5349 15.4064 19.9166 14.5335 19.98 13.61C19.98 12.91 20.35 12.46 21.08 12.5C21.81 12.54 22.08 13.1 22.08 13.75C22.1147 14.8872 21.7303 15.9976 21 16.87C19.4 18.87 17.83 20.87 16.24 22.87C15.1673 24.1118 14.6187 25.7216 14.71 27.36V27.36ZM36 29.55H14.72V33.76H36V29.55ZM36 35.95H14.68C14.68 36.7 14.68 37.4 14.68 38.11C14.6664 38.3932 14.7132 38.6761 14.8172 38.9399C14.9213 39.2036 15.0803 39.4422 15.2836 39.6399C15.4869 39.8375 15.7299 39.9897 15.9965 40.0862C16.2631 40.1828 16.5472 40.2216 16.83 40.2C22.53 40.2 28.2233 40.2 33.91 40.2C34.1849 40.2207 34.4612 40.1843 34.7215 40.0931C34.9817 40.0019 35.2203 39.8578 35.4222 39.67C35.6241 39.4822 35.785 39.2546 35.8947 39.0017C36.0045 38.7487 36.0607 38.4758 36.06 38.2C36.11 37.47 36.07 36.76 36.07 36L36 35.95ZM38.14 18.74C38.1382 18.358 38.0308 17.9839 37.8296 17.6591C37.6284 17.3344 37.3413 17.0716 37 16.9C36.6254 16.7126 36.2049 16.6365 35.7883 16.6808C35.3718 16.7251 34.9767 16.8879 34.65 17.15C34.4537 17.2675 34.2871 17.4286 34.1632 17.6208C34.0392 17.813 33.9611 18.0311 33.935 18.2584C33.9089 18.4856 33.9355 18.7158 34.0126 18.9311C34.0898 19.1464 34.2155 19.3411 34.38 19.5C34.6601 19.8146 34.9174 20.1488 35.15 20.5C35.2962 20.7434 35.526 20.9253 35.7965 21.0117C36.0669 21.0982 36.3596 21.0834 36.62 20.97C37.1019 20.8394 37.5237 20.5458 37.8136 20.1392C38.1035 19.7326 38.2435 19.2382 38.21 18.74H38.14Z" fill="#0072BB"/>
<path d="M25.3201 10.29C23.6601 10.29 22.0001 10.29 20.3201 10.29C20.0815 10.2769 19.8481 10.2161 19.6334 10.1114C19.4187 10.0066 19.2272 9.85993 19.0701 9.67999C18.6001 8.96999 19.1901 8.24999 20.2201 8.23999C22.0801 8.23999 23.9501 8.23999 25.8201 8.23999H30.3501C31.0501 8.23999 31.5901 8.45999 31.6001 9.23999C31.6101 10.02 31.0701 10.24 30.3601 10.24L25.3201 10.29Z" fill="#0072BB"/>
</svg>
