<svg width="51" height="51" viewBox="0 0 51 51" fill="none" xmlns="http://www.w3.org/2000/svg">
<path d="M17.79 13.83C18.3423 13.83 18.79 13.3823 18.79 12.83C18.79 12.2777 18.3423 11.83 17.79 11.83C17.2378 11.83 16.79 12.2777 16.79 12.83C16.79 13.3823 17.2378 13.83 17.79 13.83Z" fill="#0072BB"/>
<path d="M19.4099 24.22C19.2535 24.22 19.1034 24.2822 18.9928 24.3928C18.8821 24.5035 18.8199 24.6535 18.8199 24.81V24.81C18.8447 26.6335 19.4782 28.3964 20.6196 29.8187C21.7611 31.241 23.3451 32.241 25.1199 32.66C25.7398 32.8033 26.3737 32.8771 27.0099 32.88C28.0842 32.8787 29.1476 32.6658 30.1395 32.2535C31.1315 31.8412 32.0325 31.2376 32.7912 30.4771C33.5498 29.7166 34.1512 28.8141 34.5611 27.8211C34.971 26.8282 35.1813 25.7642 35.1799 24.69C35.1695 24.1456 35.1092 23.6034 34.9999 23.07C34.9761 22.9676 34.927 22.8727 34.8572 22.7941C34.7873 22.7155 34.6989 22.6557 34.5999 22.62C34.4979 22.5899 34.3898 22.5869 34.2863 22.6115C34.1828 22.6361 34.0875 22.6873 34.0099 22.76C32.6505 24.0232 30.845 24.6949 28.9904 24.6274C27.1359 24.5599 25.384 23.7587 24.1199 22.4C23.6723 21.9302 23.295 21.398 22.9999 20.82C22.9616 20.7507 22.9096 20.6898 22.8472 20.641C22.7848 20.5922 22.7132 20.5564 22.6367 20.5359C22.5601 20.5154 22.4802 20.5105 22.4018 20.5215C22.3233 20.5325 22.2479 20.5592 22.1799 20.6C22.0504 20.6721 21.9528 20.7903 21.9065 20.9312C21.8601 21.072 21.8685 21.2251 21.9299 21.36C22.4145 22.3199 23.0836 23.1748 23.899 23.8759C24.7143 24.5769 25.6598 25.1104 26.6815 25.4457C27.7031 25.781 28.7809 25.9115 29.8531 25.8299C30.9252 25.7483 31.9708 25.4561 32.9299 24.97C33.2777 24.7914 33.612 24.5875 33.9299 24.36C33.9608 25.2793 33.8103 26.1956 33.487 27.0567C33.1638 27.9178 32.6741 28.7067 32.0459 29.3786C31.4177 30.0504 30.6633 30.5919 29.8258 30.9722C28.9884 31.3525 28.0842 31.5641 27.1649 31.595C26.2457 31.6259 25.3294 31.4754 24.4683 31.1521C23.6072 30.8288 22.8182 30.3391 22.1464 29.7109C20.7895 28.4422 19.9923 26.6865 19.9299 24.83V24.83C19.9337 24.6821 19.8827 24.538 19.7868 24.4254C19.6908 24.3128 19.5566 24.2397 19.4099 24.22V24.22Z" fill="#0072BB"/>
<path d="M42.5399 31C41.5126 30.0608 40.2579 29.4059 38.8999 29.1C39.0199 28.71 39.1499 28.32 39.2399 27.91C39.8292 25.1999 39.7607 22.3881 39.0399 19.71C38.6777 18.3398 38.2028 17.0019 37.6199 15.71C36.6799 13.62 35.8099 13.62 35.5199 13.62C35.2224 13.63 34.9352 13.7313 34.6972 13.9102C34.4593 14.0891 34.2822 14.3369 34.1899 14.62L33.8299 15.46C33.5035 16.4391 32.9908 17.3457 32.3199 18.13C31.7662 18.6453 31.0777 18.9931 30.3343 19.1329C29.5909 19.2728 28.8231 19.1989 28.1199 18.92C27.437 18.6681 26.8333 18.2389 26.3711 17.6765C25.9089 17.1142 25.6048 16.4388 25.4899 15.72L25.4099 15.15C25.3534 14.066 25.5701 12.9851 26.0401 12.0066C26.5101 11.0281 27.2184 10.1834 28.0999 9.55C28.6999 9.08 30.2999 8.12 29.7999 7.01C29.2999 5.9 28.2099 6.13 27.2499 6.44L27.3999 6.3C27.7444 6.06134 27.9807 5.69633 28.0575 5.28435C28.1343 4.87237 28.0453 4.44673 27.8099 4.1L27.7399 4C27.0899 3.27 25.6299 3.2 24.0999 4.47L22.8399 5.54C22.7893 5.39407 22.7074 5.26096 22.5999 5.15C22.0499 4.57 20.7999 4.44 19.5999 5.43C18.8676 6.15046 18.22 6.95235 17.6699 7.82C16.9048 7.99807 16.1679 8.28073 15.4799 8.66C14.9835 8.92532 14.5175 9.24386 14.0899 9.61L11.8899 8.61C11.76 8.54773 11.6153 8.52315 11.4721 8.53906C11.3289 8.55497 11.193 8.61073 11.0799 8.7C10.9655 8.78932 10.8779 8.90844 10.8268 9.04427C10.7756 9.1801 10.7629 9.3274 10.7899 9.47L11.5499 13.19C9.99997 16.4639 9.35101 20.0918 9.66995 23.7C9.80928 25.623 10.2901 27.5057 11.0899 29.26C9.93536 29.5839 8.87558 30.1807 7.99995 31C7.48105 31.5248 7.07568 32.1507 6.80902 32.8388C6.54237 33.527 6.42014 34.2626 6.44995 35C6.44995 41.63 14.8999 47 25.2899 47C35.6799 47 44.1299 41.6 44.1299 35C44.1516 34.2601 44.0217 33.5236 43.7482 32.8357C43.4748 32.1479 43.0636 31.5232 42.5399 31V31ZM13.9999 12.44C14.433 11.7237 15.0137 11.108 15.7035 10.6338C16.3932 10.1596 17.1761 9.83785 17.9999 9.69H18.6799C19.787 9.71201 20.8503 10.1267 21.6799 10.86C23.1099 12.08 23.3099 13.48 23.5999 15.42L23.6899 16.01C23.9381 17.5575 24.7907 18.943 26.0603 19.8619C27.3298 20.7808 28.9124 21.1578 30.4599 20.91C31.6106 20.72 32.6809 20.1987 33.5399 19.41C34.3782 18.4602 35.0235 17.3564 35.4399 16.16C35.4399 16.03 35.5499 15.91 35.5999 15.78C35.7303 15.9959 35.8472 16.2197 35.9499 16.45C36.4893 17.6662 36.9307 18.9235 37.2699 20.21C37.9123 22.6141 37.9774 25.136 37.4599 27.57C37.0111 29.6579 36.041 31.5982 34.6399 33.21C31.5534 34.3566 28.2923 34.9621 24.9999 35C22.167 34.9828 19.3537 34.5274 16.6599 33.65C15.1529 32.4289 13.9128 30.9112 13.0166 29.191C12.1204 27.4708 11.5872 25.5848 11.4499 23.65C11.0517 19.7351 11.9474 15.7975 13.9999 12.44V12.44ZM25.2499 45.27C21.928 45.301 18.6323 44.6792 15.5499 43.44H16.1599C17.9326 43.4286 19.7004 43.2511 21.4399 42.91L22.1499 42.75C22.4599 42.87 22.7599 43 23.0699 43.11C25.1994 43.9102 27.3989 44.5094 29.6399 44.9C28.1886 45.1382 26.7207 45.2619 25.2499 45.27V45.27ZM33.0899 44.11C30.0147 43.9508 26.9809 43.3305 24.0899 42.27C26.6676 41.5745 29.0788 40.3672 31.1799 38.72C31.2949 38.626 31.3686 38.4908 31.3854 38.3433C31.4022 38.1957 31.3608 38.0475 31.2699 37.93C31.1662 37.8153 31.0228 37.7443 30.8688 37.7313C30.7147 37.7183 30.5614 37.7643 30.4399 37.86C28.0283 39.7023 25.2323 40.9773 22.2599 41.59C18.999 40.3495 16.0152 38.477 13.4799 36.08C13.3683 35.973 13.2196 35.9133 13.0649 35.9133C12.9103 35.9133 12.7616 35.973 12.6499 36.08C12.5949 36.1332 12.5511 36.1969 12.5212 36.2673C12.4913 36.3377 12.4759 36.4135 12.4759 36.49C12.4759 36.5665 12.4913 36.6423 12.5212 36.7127C12.5511 36.7831 12.5949 36.8468 12.6499 36.9C14.8678 39.038 17.4479 40.7648 20.2699 42C17.8102 42.4298 15.2963 42.4501 12.8299 42.06C11.0321 40.9974 9.59903 39.4143 8.71995 37.52C9.2699 37.9695 9.86668 38.3584 10.4999 38.68C10.567 38.7092 10.6376 38.7293 10.7099 38.74C10.8263 38.7516 10.9434 38.7271 11.0454 38.6698C11.1473 38.6126 11.2292 38.5254 11.2799 38.42C11.3142 38.3538 11.3349 38.2815 11.3409 38.2072C11.3468 38.133 11.3379 38.0583 11.3146 37.9875C11.2914 37.9167 11.2542 37.8513 11.2053 37.795C11.1564 37.7388 11.0968 37.6929 11.0299 37.66V37.66C9.95306 37.1212 8.99174 36.3773 8.19995 35.47V35C8.16552 34.4927 8.2366 33.9837 8.40872 33.5052C8.58083 33.0268 8.85024 32.5892 9.19995 32.22C9.9709 31.5422 10.899 31.0678 11.8999 30.84C12.1699 31.29 12.4599 31.73 12.7699 32.15L11.9999 31.76C11.7845 31.7218 11.5624 31.7553 11.3679 31.8554C11.1733 31.9554 11.0169 32.1166 10.9227 32.3141C10.8284 32.5116 10.8016 32.7345 10.8463 32.9488C10.891 33.163 11.0047 33.3566 11.1699 33.5C15.4683 35.6505 20.1944 36.809 24.9999 36.89C30.0131 36.8026 34.9382 35.5568 39.3899 33.25C39.6552 33.197 39.8884 33.0407 40.0385 32.8157C40.1885 32.5906 40.243 32.3152 40.1899 32.05C40.1369 31.7848 39.9807 31.5515 39.7556 31.4015C39.5306 31.2514 39.2552 31.197 38.9899 31.25C38.8207 31.2896 38.6632 31.3684 38.5299 31.48L37.7199 31.85C37.9366 31.4601 38.1335 31.0596 38.3099 30.65C39.2496 30.7993 40.1347 31.1885 40.8799 31.78C40.9266 33.3379 40.404 34.8595 39.4099 36.06C38.3925 37.3047 37.0791 38.2743 35.5899 38.88C35.521 38.9056 35.4578 38.9445 35.4039 38.9946C35.35 39.0446 35.3065 39.1048 35.2758 39.1716C35.2452 39.2385 35.228 39.3108 35.2253 39.3843C35.2226 39.4577 35.2343 39.5311 35.2599 39.6V39.6C35.3034 39.7081 35.3778 39.8009 35.4739 39.8668C35.57 39.9326 35.6835 39.9685 35.7999 39.97C35.8631 39.9965 35.9318 40.0069 35.9999 40C37.6774 39.3224 39.1565 38.232 40.2999 36.83C41.1782 35.7767 41.7645 34.5111 41.9999 33.16C42.2454 33.7414 42.3614 34.3693 42.3399 35C42.3399 39 38.5799 42.4 33.0899 44.11V44.11Z" fill="#0072BB"/>
<path d="M33.96 41.96C34.3024 41.96 34.58 41.6869 34.58 41.35C34.58 41.0131 34.3024 40.74 33.96 40.74C33.6175 40.74 33.34 41.0131 33.34 41.35C33.34 41.6869 33.6175 41.96 33.96 41.96Z" fill="#0072BB"/>
<path d="M12 40.18C11.9932 40.2602 12.0023 40.3409 12.0267 40.4175C12.0512 40.4941 12.0906 40.5652 12.1427 40.6265C12.1947 40.6879 12.2584 40.7383 12.33 40.775C12.4016 40.8116 12.4798 40.8337 12.56 40.84V40.84C12.6801 40.8494 12.8003 40.8231 12.9055 40.7643C13.0106 40.7055 13.096 40.6169 13.1509 40.5097C13.2057 40.4024 13.2276 40.2813 13.2137 40.1616C13.1999 40.042 13.1509 39.9291 13.0729 39.8372C12.995 39.7454 12.8916 39.6786 12.7758 39.6455C12.66 39.6123 12.5369 39.6141 12.4222 39.6508C12.3074 39.6875 12.2061 39.7573 12.1309 39.8515C12.0558 39.9456 12.0103 40.06 12 40.18V40.18Z" fill="#0072BB"/>
</svg>
