<svg width="51" height="51" viewBox="0 0 51 51" fill="none" xmlns="http://www.w3.org/2000/svg">
<path d="M33.18 30.08C33.2853 29.9258 33.3294 29.7379 33.3035 29.5529C33.2776 29.368 33.1836 29.1993 33.04 29.08V29.08C32.7216 28.8199 32.3876 28.5795 32.04 28.36C35.84 27.78 38.34 24.04 38.44 23.88C38.5453 23.7258 38.5894 23.5379 38.5635 23.3529C38.5376 23.168 38.4436 22.9993 38.3 22.88V22.88C36.8357 21.7214 35.1252 20.914 33.3 20.52C33.9435 20.1065 34.5173 19.5934 35 19C37.47 16 36.83 11.56 36.8 11.38C36.7732 11.2016 36.6822 11.0392 36.5441 10.9232C36.406 10.8072 36.2303 10.7456 36.05 10.75C35.86 10.75 31.35 10.94 28.88 13.91C28.469 14.4309 28.1325 15.0064 27.88 15.62C27.1781 14.0526 26.1562 12.6492 24.88 11.5V11.5C24.7435 11.3749 24.5651 11.3055 24.38 11.3055C24.1949 11.3055 24.0165 11.3749 23.88 11.5C23.74 11.63 20.45 14.69 20.49 18.5C20.2118 18.1919 19.9181 17.8982 19.61 17.62V17.62C19.4735 17.4949 19.2951 17.4255 19.11 17.4255C18.9249 17.4255 18.7465 17.4949 18.61 17.62C18.48 17.74 15.48 20.54 15.24 24.14C15.0318 23.9148 14.8115 23.7012 14.58 23.5V23.5C14.4435 23.3749 14.2651 23.3055 14.08 23.3055C13.8949 23.3055 13.7165 23.3749 13.58 23.5C13.44 23.63 10.13 26.71 10.19 30.56C10.19 33.97 12.89 36.69 13.61 37.36L7.41998 45C7.35432 45.0736 7.30379 45.1593 7.27127 45.2524C7.23875 45.3454 7.22488 45.444 7.23045 45.5424C7.23602 45.6409 7.26092 45.7372 7.30374 45.826C7.34655 45.9148 7.40644 45.9944 7.47998 46.06C7.55352 46.1257 7.63927 46.1762 7.73234 46.2087C7.82541 46.2412 7.92398 46.2551 8.02241 46.2495C8.12084 46.244 8.21721 46.2191 8.30601 46.1763C8.39482 46.1334 8.47432 46.0736 8.53998 46V46L14.83 38.53C15.97 39.33 18.75 40.99 21.74 40.53C25.55 39.96 28.06 36.21 28.17 36.05C28.228 35.97 28.2697 35.8793 28.2926 35.7831C28.3155 35.687 28.3191 35.5872 28.3033 35.4897C28.2875 35.3921 28.2526 35.2986 28.2005 35.2146C28.1485 35.1305 28.0803 35.0576 28 35V35C27.7626 34.8077 27.5156 34.6274 27.26 34.46C30.8 33.64 33 30.23 33.18 30.08ZM20 32.68C19.1275 32.8761 18.2931 33.2139 17.53 33.68C17.8879 32.8555 18.1042 31.9765 18.17 31.08C18.3326 31.4687 18.5821 31.815 18.8994 32.0923C19.2166 32.3697 19.5931 32.5707 20 32.68V32.68ZM25.52 26.68C24.4512 26.8574 23.4301 27.2522 22.52 27.84C22.9536 26.8569 23.1784 25.7945 23.18 24.72C23.7857 25.5709 24.5932 26.2581 25.53 26.72L25.52 26.68ZM31.74 26.93C29.38 27.28 27.06 25.93 26.02 25.24C27.2406 23.5838 29.0146 22.42 31.02 21.96C33.39 21.61 35.7 22.96 36.74 23.65C35.5295 25.3169 33.7511 26.4835 31.74 26.93V26.93ZM35.39 12.36C35.45 13.62 35.39 16.3 33.85 18.13C32.4068 19.5857 30.5002 20.4913 28.46 20.69C28.4 19.43 28.46 16.75 30 14.92C31.54 13.09 34.16 12.53 35.41 12.36H35.39ZM24.39 13.17C25.25 14.08 26.94 16.17 26.98 18.55C27.02 20.93 25.43 23 24.59 24C23.73 23.06 22.03 21 22.03 18.59C22.1759 16.5486 23.028 14.6216 24.44 13.14L24.39 13.17ZM16.76 24.79C16.9163 22.7472 17.7749 20.8215 19.19 19.34C20.05 20.25 21.74 22.34 21.77 24.72C21.8 27.1 20.18 29.23 19.34 30.17C18.71 29.5136 18.1596 28.7852 17.7 28C17.5053 27.6536 17.3382 27.2925 17.2 26.92C16.9228 26.2433 16.7736 25.5211 16.76 24.79V24.79ZM14.34 36C13.48 35.09 11.79 33 11.75 30.62C11.71 28.24 13.34 26.1 14.18 25.17C14.8082 25.8365 15.3553 26.575 15.81 27.37C16.0214 27.7245 16.1956 28.0998 16.33 28.49C16.5923 29.1498 16.7378 29.8503 16.76 30.56C16.6428 32.6076 15.7822 34.5419 14.34 36V36ZM21.53 39C19.17 39.35 16.84 38 15.8 37.31C17.0198 35.6549 18.7947 34.4941 20.8 34.04C21.5103 33.948 22.2314 33.9819 22.93 34.14C23.35 34.26 23.64 34.31 24.08 34.46C24.9433 34.7866 25.7655 35.2128 26.53 35.73C25.73 36.69 23.89 38.64 21.53 39ZM26.53 33.11C25.8232 33.2071 25.1045 33.1732 24.41 33.01C24.0156 32.948 23.6297 32.8406 23.26 32.69C22.3949 32.3674 21.5722 31.941 20.81 31.42C22.0298 29.7649 23.8047 28.6041 25.81 28.15C28.19 27.8 30.5 29.15 31.54 29.84C30.74 30.78 28.89 32.73 26.54 33.07L26.53 33.11Z" fill="#0072BB"/>
<path d="M37.74 9.88001C37.8853 9.99698 38.0699 10.0539 38.2559 10.039C38.4419 10.0241 38.6151 9.9386 38.74 9.80001L43.74 3.93001C43.8057 3.85651 43.8563 3.77077 43.8889 3.67769C43.9215 3.58461 43.9354 3.48602 43.9298 3.38757C43.9243 3.28911 43.8993 3.19272 43.8564 3.10391C43.8136 3.0151 43.7536 2.93562 43.68 2.87001C43.5304 2.73969 43.3358 2.67302 43.1378 2.68423C42.9397 2.69544 42.7539 2.78365 42.62 2.93001L37.62 8.80001C37.5062 8.94597 37.4505 9.12882 37.4634 9.31342C37.4763 9.49802 37.557 9.67132 37.69 9.80001L37.74 9.88001Z" fill="#0072BB"/>
<path d="M33.76 9.71C33.9053 9.82697 34.09 9.88386 34.2759 9.86898C34.4619 9.85411 34.6351 9.76859 34.76 9.63L39.76 3.76C39.8258 3.6865 39.8764 3.60076 39.9089 3.50768C39.9415 3.4146 39.9554 3.31601 39.9498 3.21755C39.9443 3.11909 39.9193 3.0227 39.8765 2.93389C39.8336 2.84509 39.7736 2.7656 39.7 2.7C39.5504 2.56968 39.3559 2.50301 39.1578 2.51422C38.9597 2.52543 38.7739 2.61363 38.64 2.76L33.64 8.63C33.5263 8.77595 33.4705 8.95881 33.4834 9.14341C33.4963 9.32801 33.577 9.50131 33.71 9.63L33.76 9.71Z" fill="#0072BB"/>
<path d="M37.65 19.68C37.7954 19.797 37.98 19.8539 38.1659 19.839C38.3519 19.8241 38.5251 19.7386 38.65 19.6L43.65 13.73C43.7158 13.6565 43.7664 13.5708 43.799 13.4777C43.8315 13.3846 43.8454 13.286 43.8399 13.1876C43.8343 13.0891 43.8094 12.9927 43.7665 12.9039C43.7236 12.8151 43.6636 12.7356 43.59 12.67C43.4405 12.5397 43.2459 12.473 43.0478 12.4842C42.8498 12.4954 42.6639 12.5836 42.53 12.73L37.53 18.6C37.4163 18.746 37.3605 18.9288 37.3734 19.1134C37.3863 19.298 37.467 19.4713 37.6 19.6L37.65 19.68Z" fill="#0072BB"/>
<path d="M28.0801 11.54C28.2254 11.657 28.41 11.7139 28.596 11.699C28.7819 11.6841 28.9552 11.5986 29.0801 11.46L34.0801 5.59C34.1622 5.54078 34.2337 5.47566 34.2904 5.39846C34.3471 5.32126 34.3878 5.23353 34.4101 5.14041C34.4325 5.04729 34.436 4.95064 34.4205 4.85613C34.4051 4.76162 34.3709 4.67114 34.3201 4.59C34.2169 4.42842 34.0558 4.31248 33.8698 4.26599C33.6838 4.21949 33.4871 4.24598 33.3201 4.34C33.2053 4.41458 33.1122 4.51804 33.0501 4.64L28.0001 10.5C27.8734 10.6488 27.8107 10.8416 27.8257 11.0365C27.8407 11.2313 27.9321 11.4123 28.0801 11.54V11.54Z" fill="#0072BB"/>
<path d="M38.55 13.78C38.6954 13.897 38.88 13.9539 39.0659 13.939C39.2519 13.9241 39.4251 13.8386 39.55 13.7L44.55 7.83C44.6158 7.75651 44.6664 7.67077 44.699 7.57769C44.7315 7.48461 44.7454 7.38602 44.7399 7.28756C44.7343 7.1891 44.7093 7.09271 44.6665 7.0039C44.6236 6.91509 44.5636 6.83561 44.49 6.77C44.3405 6.63969 44.1459 6.57301 43.9478 6.58422C43.7497 6.59543 43.5639 6.68364 43.43 6.83L38.43 12.7C38.3015 12.8492 38.2369 13.0429 38.25 13.2393C38.263 13.4358 38.3529 13.6192 38.5 13.75L38.55 13.78Z" fill="#0072BB"/>
<path d="M6.53001 47.99C6.95527 47.99 7.30001 47.6453 7.30001 47.22C7.30001 46.7948 6.95527 46.45 6.53001 46.45C6.10475 46.45 5.76001 46.7948 5.76001 47.22C5.76001 47.6453 6.10475 47.99 6.53001 47.99Z" fill="#0072BB"/>
</svg>
