<svg width="35" height="35" viewBox="0 0 35 35" fill="none" xmlns="http://www.w3.org/2000/svg">
<path fill-rule="evenodd" clip-rule="evenodd" d="M27.874 9C27.4299 10.7252 25.8638 12 24 12C22.1362 12 20.5701 10.7252 20.126 9H6C5.44772 9 5 8.55228 5 8C5 7.44772 5.44772 7 6 7H20.126C20.5701 5.27477 22.1362 4 24 4C25.8638 4 27.4299 5.27477 27.874 7H29C29.5523 7 30 7.44772 30 8C30 8.55228 29.5523 9 29 9H27.874ZM26.2223 8C26.2223 9.2273 25.2274 10.2222 24.0001 10.2222C22.7728 10.2222 21.7778 9.2273 21.7778 8C21.7778 6.7727 22.7728 5.77778 24.0001 5.77778C25.2274 5.77778 26.2223 6.7727 26.2223 8Z" fill="#0072BB"/>
<path fill-rule="evenodd" clip-rule="evenodd" d="M27.874 27C27.4299 28.7252 25.8638 30 24 30C22.1362 30 20.5701 28.7252 20.126 27H6C5.44772 27 5 26.5523 5 26C5 25.4477 5.44772 25 6 25H20.126C20.5701 23.2748 22.1362 22 24 22C25.8638 22 27.4299 23.2748 27.874 25H29C29.5523 25 30 25.4477 30 26C30 26.5523 29.5523 27 29 27H27.874ZM26.2223 26C26.2223 27.2273 25.2274 28.2222 24.0001 28.2222C22.7728 28.2222 21.7778 27.2273 21.7778 26C21.7778 24.7727 22.7728 23.7778 24.0001 23.7778C25.2274 23.7778 26.2223 24.7727 26.2223 26Z" fill="#0072BB"/>
<path fill-rule="evenodd" clip-rule="evenodd" d="M7.12602 16C7.57006 14.2748 9.13616 13 11 13C12.8638 13 14.4299 14.2748 14.874 16L29 16C29.5523 16 30 16.4477 30 17C30 17.5523 29.5523 18 29 18H14.874C14.4299 19.7252 12.8638 21 11 21C9.13616 21 7.57006 19.7252 7.12602 18H6C5.44772 18 5 17.5523 5 17C5 16.4477 5.44772 16 6 16H7.12602ZM8.77772 17C8.77772 15.7727 9.77265 14.7778 10.9999 14.7778C12.2272 14.7778 13.2222 15.7727 13.2222 17C13.2222 18.2273 12.2272 19.2222 10.9999 19.2222C9.77265 19.2222 8.77772 18.2273 8.77772 17Z" fill="#0072BB"/>
</svg>
