<svg width="51" height="51" viewBox="0 0 51 51" fill="none" xmlns="http://www.w3.org/2000/svg">
<path d="M32.69 31.14C31.99 30.84 31.69 31.29 31.69 31.44C31.6166 31.5997 31.608 31.7815 31.6658 31.9474C31.7236 32.1133 31.8433 32.2504 32 32.33L32.13 32.4C32.82 32.72 33.13 32.27 33.13 32.13C33.1803 32.0462 33.2128 31.9529 33.2254 31.856C33.238 31.7591 33.2304 31.6606 33.2032 31.5667C33.176 31.4728 33.1297 31.3856 33.0671 31.3104C33.0046 31.2353 32.9273 31.1739 32.84 31.13L32.71 31.08L32.69 31.14Z" fill="#0072BB"/>
<path d="M25.99 34.82C25.9248 34.7535 25.847 34.7006 25.7612 34.6646C25.6753 34.6285 25.5831 34.6099 25.49 34.6099C25.3969 34.6099 25.3047 34.6285 25.2188 34.6646C25.1329 34.7006 25.0552 34.7535 24.99 34.82V34.82C24.9319 34.8934 24.889 34.9776 24.8636 35.0677C24.8382 35.1578 24.8308 35.252 24.842 35.345C24.8531 35.4379 24.8825 35.5277 24.9285 35.6092C24.9745 35.6908 25.0362 35.7624 25.11 35.82V35.82L25.22 35.91C25.355 35.9858 25.5119 36.0132 25.6646 35.9878C25.8174 35.9623 25.9568 35.8855 26.06 35.77C26.1851 35.6335 26.2545 35.4551 26.2545 35.27C26.2545 35.0849 26.1851 34.9065 26.06 34.77L25.99 34.82Z" fill="#0072BB"/>
<path d="M40.87 24.6C40.648 24.0566 40.3333 23.5558 39.94 23.12C39.8586 23.0255 39.7593 22.9479 39.6479 22.8917C39.5365 22.8355 39.4151 22.8018 39.2907 22.7925C39.1663 22.7832 39.0412 22.7985 38.9227 22.8376C38.8042 22.8766 38.6946 22.9386 38.6 23.02C38.5054 23.1014 38.4279 23.2007 38.3717 23.3121C38.3155 23.4235 38.2818 23.5449 38.2725 23.6693C38.2632 23.7937 38.2785 23.9188 38.3175 24.0373C38.3566 24.1558 38.4186 24.2655 38.5 24.36C38.7522 24.6368 38.9551 24.9547 39.1 25.3C39.4022 26.1559 39.4555 27.08 39.2537 27.965C39.0519 28.85 38.6033 29.6597 37.96 30.3L30.96 37.61C29.7116 37.3897 28.5289 36.8906 27.5 36.15C27.4277 36.0901 27.3442 36.0453 27.2543 36.0184C27.1644 35.9914 27.07 35.9828 26.9767 35.9931C26.8834 36.0033 26.7931 36.0323 26.7112 36.0781C26.6293 36.124 26.5575 36.1858 26.5 36.26V36.31C26.4417 36.3841 26.399 36.4693 26.3744 36.5603C26.3498 36.6514 26.3439 36.7464 26.3569 36.8398C26.37 36.9332 26.4018 37.023 26.4505 37.1038C26.4991 37.1846 26.5636 37.2547 26.64 37.31L27.31 37.75C28.0641 38.2246 28.8824 38.5883 29.74 38.83L23.49 45.33C23.254 45.7146 22.8748 45.9896 22.436 46.0946C21.9971 46.1997 21.5346 46.126 21.15 45.89C20.7654 45.654 20.4904 45.2748 20.3854 44.836C20.2803 44.3972 20.354 43.9346 20.59 43.55L26 28.13C27.0089 29.21 28.1594 30.1486 29.42 30.92V30.92C29.5755 31.0126 29.7612 31.0404 29.9371 30.9974C30.1129 30.9544 30.2648 30.844 30.36 30.69C30.4554 30.5381 30.4879 30.3549 30.4506 30.1795C30.4132 30.004 30.309 29.8499 30.16 29.75V29.75C28.7554 28.9316 27.5145 27.8602 26.5 26.59L27.5 23.88C27.7827 22.9856 28.3239 22.1949 29.0553 21.6076C29.7867 21.0204 30.6756 20.6628 31.61 20.58C32.0295 20.5598 32.4485 20.628 32.84 20.78C33.0682 20.8651 33.3208 20.8573 33.5433 20.7582C33.7658 20.6591 33.9406 20.4766 34.03 20.25C34.1278 20.0298 34.1343 19.7799 34.048 19.5549C33.9618 19.33 33.7899 19.1484 33.57 19.05L33.5 19C32.8603 18.7677 32.1789 18.6723 31.5 18.72C30.194 18.8191 28.9468 19.3034 27.9162 20.1115C26.8855 20.9197 26.1178 22.0154 25.71 23.26L18.97 42.92C18.6121 43.7073 18.5547 44.5984 18.8088 45.4251C19.0629 46.2518 19.6108 46.9568 20.3491 47.4072C21.0874 47.8576 21.9651 48.0221 22.8164 47.8697C23.6677 47.7173 24.4338 47.2585 24.97 46.58L39.38 31.58C40.2661 30.6785 40.8769 29.5431 41.1408 28.3068C41.4046 27.0706 41.3107 25.7848 40.87 24.6Z" fill="#0072BB"/>
<path d="M44.08 13.88C44.32 13.62 44.49 13.44 44.58 13.36C45.1432 12.9212 45.597 12.3578 45.9059 11.7141C46.2147 11.0704 46.3702 10.3639 46.36 9.64999C46.3081 9.20509 46.1572 8.77746 45.9184 8.3985C45.6796 8.01953 45.359 7.69885 44.98 7.45999C44.5184 7.17605 43.987 7.02573 43.445 7.02573C42.903 7.02573 42.3717 7.17605 41.91 7.45999V7.45999C41.1698 7.96734 40.5985 8.68486 40.27 9.52C40.0604 9.22818 39.7882 8.98693 39.4733 8.81391C39.1584 8.64089 38.8088 8.54047 38.45 8.52C38.1219 8.49469 37.7921 8.53858 37.4821 8.64883C37.172 8.75908 36.8885 8.93323 36.65 9.15999C36.3295 9.53352 36.0923 9.97115 35.9543 10.4437C35.8164 10.9162 35.7808 11.4127 35.85 11.9C35.96 13.9 36.19 18.98 36.26 20.41L36.17 20.63C36.1406 20.5585 36.0971 20.4936 36.0422 20.4391C35.9873 20.3846 35.9221 20.3417 35.8503 20.3128C35.7786 20.2839 35.7018 20.2697 35.6245 20.2709C35.5471 20.2721 35.4708 20.2888 35.4 20.32C35.2819 20.3654 35.183 20.4502 35.12 20.56C34.79 21.1 35.12 21.84 35.88 22.31C36.64 22.78 37.46 22.74 37.79 22.19C37.8722 22.06 37.8994 21.9027 37.8656 21.7527C37.8319 21.6027 37.74 21.4722 37.61 21.39C37.5194 21.3348 37.4161 21.3038 37.31 21.3C37.88 20.7 39.02 19.44 40.31 18.01L42.16 16.01C42.3703 15.7304 42.636 15.4973 42.9406 15.3252C43.2452 15.1531 43.582 15.0458 43.93 15.01C44.0739 15.0326 44.2111 15.0864 44.332 15.1676C44.4529 15.2488 44.5546 15.3554 44.63 15.48C44.6948 15.5907 44.7354 15.7139 44.7492 15.8414C44.7629 15.969 44.7496 16.098 44.71 16.22C44.604 16.4339 44.4538 16.623 44.2694 16.7747C44.0849 16.9264 43.8704 17.0372 43.64 17.1L43.23 17.24L42.05 17.58C41.8996 17.6263 41.7735 17.7297 41.6986 17.8682C41.6238 18.0066 41.6064 18.1688 41.65 18.32C41.6944 18.4602 41.7863 18.5805 41.91 18.66C42.0567 18.74 42.2282 18.7615 42.39 18.72L43.55 18.42L44.07 18.25C44.4644 18.132 44.8274 17.927 45.132 17.6501C45.4366 17.3732 45.6751 17.0314 45.83 16.65C45.9297 16.365 45.9661 16.0617 45.9367 15.7613C45.9074 15.4608 45.8129 15.1703 45.66 14.91C45.4906 14.631 45.2607 14.3936 44.9872 14.2153C44.7137 14.037 44.4037 13.9224 44.08 13.88V13.88ZM37.08 11.88C37.0152 11.5547 37.019 11.2194 37.0913 10.8956C37.1637 10.5718 37.3029 10.2668 37.5 9.99999C37.6178 9.89149 37.7568 9.80876 37.9084 9.7571C38.0599 9.70544 38.2206 9.68599 38.38 9.69999C38.5618 9.70718 38.7396 9.75491 38.9005 9.83969C39.0614 9.92447 39.2013 10.0442 39.31 10.19C39.461 10.4637 39.5556 10.7649 39.5882 11.0758C39.6208 11.3866 39.5909 11.7009 39.5 12C38.87 13.85 38.06 16 37.4 17.71C37.26 15.71 37.14 13.18 37.07 11.86L37.08 11.88ZM43.79 12.55C43.4 12.93 41.4 15.13 39.46 17.25L38.46 18.38C39.16 16.61 40 14.43 40.46 12.89C40.5093 12.7392 40.5494 12.5856 40.58 12.43C40.76 11.89 40.93 11.37 41.08 10.9C41.2669 9.94781 41.7667 9.08543 42.5 8.44999V8.44999C42.7707 8.27838 43.0846 8.18726 43.405 8.18726C43.7255 8.18726 44.0394 8.27838 44.31 8.44999C44.5371 8.58942 44.7292 8.77915 44.8714 9.00455C45.0135 9.22994 45.102 9.48498 45.13 9.74999C45.1156 10.2857 44.9804 10.8112 44.7345 11.2874C44.4886 11.7635 44.1384 12.1781 43.71 12.5L43.79 12.55Z" fill="#0072BB"/>
<path d="M27.5 11.83C26.9012 11.1958 26.1788 10.6911 25.3773 10.3471C24.5757 10.0031 23.7122 9.82712 22.84 9.82999C20.8542 9.8741 18.9537 10.6464 17.5 12C16.0215 10.6397 14.1075 9.84936 12.1 9.76999C11.2278 9.76712 10.3643 9.94312 9.56277 10.2871C8.76126 10.6311 8.0388 11.1358 7.44001 11.77C6.59449 12.7332 5.9544 13.8587 5.55893 15.0778C5.16345 16.2969 5.0209 17.5839 5.14001 18.86C5.38001 23.79 9.14001 29.52 13.69 29.52C15.0442 29.5311 16.3709 29.1376 17.5 28.39C18.6059 29.162 19.9214 29.5772 21.27 29.58C21.5643 29.5716 21.8581 29.5482 22.15 29.51L22.8 27.63C22.3143 27.8308 21.7955 27.9393 21.27 27.95C20.1012 27.9529 18.9698 27.538 18.08 26.78C18.0064 26.7032 17.9178 26.6424 17.8198 26.6011C17.7218 26.5598 17.6164 26.539 17.51 26.54C17.4065 26.5354 17.3031 26.5526 17.2066 26.5905C17.1102 26.6284 17.0227 26.6861 16.95 26.76C16.0636 27.5193 14.9464 27.9563 13.78 28C10.29 28 7.05001 23 6.85001 18.9C6.74542 17.8419 6.85631 16.7736 7.17599 15.7596C7.49567 14.7455 8.01751 13.8068 8.71001 13C9.14881 12.5266 9.67894 12.147 10.2684 11.884C10.8579 11.621 11.4946 11.4802 12.14 11.47C13.9795 11.6162 15.6983 12.4435 16.96 13.79C17.1079 13.9201 17.2981 13.9918 17.495 13.9918C17.692 13.9918 17.8821 13.9201 18.03 13.79L18.13 13.71C19.3615 12.3849 21.0546 11.5831 22.86 11.47C23.5141 11.4722 24.1606 11.6093 24.7594 11.8725C25.3581 12.1358 25.8962 12.5196 26.34 13C27.5841 14.4265 28.2478 16.2678 28.2 18.16C28.7 17.8533 29.2335 17.6051 29.79 17.42C29.7026 15.3465 28.8924 13.3689 27.5 11.83V11.83Z" fill="#0072BB"/>
<path d="M11.5 15.49C11.6584 15.4334 11.7882 15.3166 11.8612 15.165C11.9341 15.0134 11.9445 14.8392 11.89 14.68C11.862 14.6017 11.8189 14.5296 11.7629 14.468C11.707 14.4065 11.6395 14.3566 11.5642 14.3212C11.4889 14.2859 11.4073 14.2658 11.3242 14.2622C11.2411 14.2586 11.1581 14.2714 11.08 14.3V14.3C9.36999 14.9 8.92999 16.99 9.16999 18.3C9.2013 18.4422 9.27942 18.5697 9.39184 18.6622C9.50426 18.7546 9.64446 18.8067 9.78999 18.81H9.90999C10.0742 18.783 10.221 18.6921 10.3184 18.5572C10.4159 18.4223 10.456 18.2544 10.43 18.09C10.4355 18.067 10.4355 18.043 10.43 18.02C10.26 17.36 10.5 15.85 11.5 15.49Z" fill="#0072BB"/>
<path d="M12.79 13.55C12.7112 13.5709 12.6372 13.6071 12.5724 13.6567C12.5076 13.7062 12.4532 13.7681 12.4123 13.8387C12.3714 13.9093 12.3449 13.9872 12.3342 14.0681C12.3235 14.149 12.3289 14.2312 12.35 14.31V14.31C12.3853 14.4421 12.4633 14.5588 12.5718 14.642C12.6803 14.7252 12.8133 14.7702 12.95 14.77H13.18C13.2563 14.7492 13.3277 14.7135 13.3902 14.665C13.4526 14.6165 13.5049 14.5561 13.5439 14.4873C13.5829 14.4186 13.608 14.3427 13.6176 14.2643C13.6273 14.1858 13.6213 14.1062 13.6 14.03V14.03C13.5553 13.8595 13.4452 13.7136 13.2936 13.6237C13.142 13.5339 12.961 13.5074 12.79 13.55V13.55Z" fill="#0072BB"/>
<path d="M17.24 10.63H17.42C17.5368 10.6299 17.6508 10.5945 17.7472 10.5285C17.8435 10.4624 17.9177 10.3689 17.96 10.26C18.4874 8.74849 18.4519 7.09743 17.86 5.61C17.0735 4.21372 15.8093 3.14839 14.3 2.61C14.2264 2.58486 14.1487 2.5745 14.0711 2.5795C13.9936 2.58451 13.9178 2.60478 13.8481 2.63916C13.7784 2.67354 13.7162 2.72135 13.665 2.77984C13.6139 2.83833 13.5748 2.90635 13.55 2.98C13.0277 4.48891 13.0631 6.13499 13.65 7.62C14.4412 9.02619 15.7173 10.0962 17.24 10.63V10.63ZM14.5 4C15.4679 4.44624 16.2721 5.184 16.8 6.11C17.2149 7.11872 17.2887 8.23547 17.01 9.29C16.035 8.8408 15.2266 8.09541 14.7 7.16C14.3004 6.15441 14.2304 5.04794 14.5 4V4Z" fill="#0072BB"/>
</svg>
