<svg width="51" height="51" viewBox="0 0 51 51" fill="none" xmlns="http://www.w3.org/2000/svg">
<path d="M20.84 28.23C20.84 28.4422 20.7557 28.6456 20.6056 28.7957C20.4556 28.9457 20.2521 29.03 20.04 29.03H19.74C19.5278 29.03 19.3243 28.9457 19.1743 28.7957C19.0242 28.6456 18.94 28.4422 18.94 28.23C18.94 28.0178 19.0242 27.8143 19.1743 27.6643C19.3243 27.5143 19.5278 27.43 19.74 27.43H20C20.1083 27.4246 20.2167 27.4412 20.3184 27.479C20.4201 27.5168 20.5131 27.5748 20.5917 27.6497C20.6703 27.7245 20.7328 27.8146 20.7755 27.9143C20.8181 28.0141 20.8401 28.1215 20.84 28.23V28.23ZM18.77 36.74V41.21C18.77 44.39 21.77 46.05 21.77 46.07C21.9246 46.1555 22.0466 46.2899 22.1168 46.4521C22.1871 46.6143 22.2016 46.7952 22.1582 46.9665C22.1148 47.1378 22.0159 47.29 21.8769 47.3991C21.7379 47.5083 21.5667 47.5684 21.39 47.57H14.54C14.3632 47.5684 14.192 47.5083 14.053 47.3991C13.914 47.29 13.8151 47.1378 13.7717 46.9665C13.7283 46.7952 13.7428 46.6143 13.8131 46.4521C13.8833 46.2899 14.0053 46.1555 14.16 46.07C15.0245 45.573 15.7515 44.8684 16.2753 44.0198C16.7991 43.1713 17.1032 42.2056 17.16 41.21V36.74C15.5715 36.5371 14.1209 35.7341 13.1056 34.4957C12.0904 33.2573 11.5874 31.6774 11.7 30.08L12.39 20.4C12.4027 20.1993 12.4915 20.0109 12.6383 19.8734C12.7851 19.7359 12.9788 19.6596 13.18 19.66H22.73C22.9321 19.6594 23.127 19.7354 23.2754 19.8727C23.4239 20.01 23.5148 20.1984 23.53 20.4L24.21 30.08C24.3276 31.6769 23.8279 33.2581 22.8138 34.4974C21.7997 35.7366 20.3486 36.5394 18.76 36.74H18.77ZM18 44.36C17.6713 44.9554 17.268 45.5066 16.8 46H19.14C18.6886 45.5065 18.3052 44.955 18 44.36V44.36ZM21.42 33.71C21.858 33.2404 22.1943 32.6853 22.4077 32.0795C22.6211 31.4738 22.707 30.8305 22.66 30.19L22 21.26H13.94L13.5 27.43H16.74C16.9521 27.43 17.1556 27.5143 17.3056 27.6643C17.4557 27.8143 17.54 28.0178 17.54 28.23C17.54 28.4422 17.4557 28.6456 17.3056 28.7957C17.1556 28.9457 16.9521 29.03 16.74 29.03H13.39L13.31 30.19C13.2389 31.1551 13.4694 32.1184 13.9697 32.9468C14.4699 33.7751 15.2151 34.4277 16.1022 34.8141C16.9894 35.2006 17.9747 35.302 18.9219 35.1042C19.8692 34.9064 20.7316 34.4192 21.39 33.71H21.42ZM38.83 24.71L36.89 46.84C36.8748 47.0389 36.7849 47.2248 36.6384 47.3602C36.4918 47.4956 36.2995 47.5706 36.1 47.57H24.71C24.5104 47.5706 24.3181 47.4956 24.1715 47.3602C24.025 47.2248 23.9351 47.0389 23.92 46.84L23 36.34C22.9908 36.2349 23.0024 36.1291 23.0341 36.0285C23.0658 35.9279 23.117 35.8346 23.1848 35.7538C23.2526 35.673 23.3356 35.6064 23.4291 35.5577C23.5227 35.509 23.6249 35.4792 23.73 35.47C23.835 35.4608 23.9409 35.4724 24.0414 35.5041C24.142 35.5358 24.2354 35.587 24.3161 35.6548C24.3969 35.7226 24.4636 35.8056 24.5123 35.8992C24.561 35.9927 24.5908 36.0949 24.6 36.2L25.45 46H35.36L36 38.52H29.56C29.4008 38.52 29.2482 38.4568 29.1357 38.3443C29.0232 38.2317 28.96 38.0791 28.96 37.92V25.25C28.96 25.0909 29.0232 24.9382 29.1357 24.8257C29.2482 24.7132 29.4008 24.65 29.56 24.65H37.2C37.2613 23.2098 36.8606 21.7877 36.0564 20.5913C35.2522 19.395 34.0867 18.487 32.73 18C32.5761 17.9433 32.443 17.8413 32.3484 17.7074C32.2538 17.5734 32.202 17.414 32.2 17.25V8.07999H28.61V17.22C28.6079 17.384 28.5562 17.5434 28.4615 17.6774C28.3669 17.8113 28.2338 17.9133 28.08 17.97C27.1949 18.287 26.3872 18.788 25.71 19.44C25.6348 19.5174 25.5449 19.5788 25.4454 19.6205C25.346 19.6622 25.2391 19.6834 25.1312 19.6828C25.0234 19.6822 24.9168 19.6597 24.8178 19.6169C24.7189 19.574 24.6296 19.5115 24.5554 19.4333C24.4812 19.355 24.4236 19.2626 24.386 19.1615C24.3484 19.0604 24.3317 18.9527 24.3368 18.845C24.3419 18.7373 24.3687 18.6317 24.4157 18.5346C24.4626 18.4375 24.5287 18.3509 24.61 18.28C25.309 17.6089 26.1216 17.0671 27.01 16.68V8.07999H26.91C26.6978 8.07999 26.4943 7.99571 26.3443 7.84568C26.1942 7.69565 26.11 7.49217 26.11 7.27999V4.66999C26.1099 4.21024 26.2919 3.76918 26.616 3.44315C26.9402 3.11712 27.3802 2.93263 27.84 2.92999H33C33.4545 2.94044 33.8868 3.12837 34.2045 3.45356C34.5223 3.77874 34.7001 4.21536 34.7 4.66999V7.27999C34.7 7.49217 34.6157 7.69565 34.4656 7.84568C34.3156 7.99571 34.1121 8.07999 33.9 8.07999H33.8V16.68C35.3501 17.3582 36.658 18.4908 37.5507 19.9281C38.4435 21.3654 38.8791 23.0398 38.8 24.73L38.83 24.71ZM33.1 4.66999C33.1012 4.63886 33.0921 4.60818 33.074 4.58282C33.0559 4.55746 33.0298 4.53887 33 4.52999H27.85C27.8128 4.52999 27.7772 4.54474 27.751 4.571C27.7247 4.59725 27.71 4.63286 27.71 4.66999V6.47999H33.1V4.66999ZM37.1 25.85H30.16V37.32H36.11L37.1 25.85Z" fill="#0072BB"/>
</svg>
