<svg width="51" height="51" viewBox="0 0 51 51" fill="none" xmlns="http://www.w3.org/2000/svg">
<path d="M30.7199 29.44C32.9999 31.67 35.2799 33.88 37.5399 36.1C38.9999 37.54 40.4299 39 41.8799 40.46C42.3599 40.94 42.5299 41.46 41.9999 42.01C41.4699 42.56 40.8899 42.32 40.3899 41.82C38.8599 40.29 37.3099 38.82 35.7899 37.24C33.6599 35.09 31.5499 32.92 29.3999 30.73C25.8299 33.42 21.9999 34.48 17.7399 33.38C14.6565 32.5903 11.9829 30.6699 10.2499 28C8.57012 25.4239 7.87314 22.3294 8.28634 19.2819C8.69954 16.2344 10.1953 13.4372 12.5005 11.4014C14.8056 9.36564 17.7662 8.22709 20.8415 8.19378C23.9167 8.16047 26.9013 9.23462 29.2499 11.22C33.9399 15.17 35.8299 22.7 30.7199 29.44ZM20.4499 31.51C27.1799 32.37 33.1299 25.36 31.4499 18.72C30.8903 15.9432 29.2506 13.5024 26.8914 11.9346C24.5321 10.3668 21.6468 9.8004 18.8699 10.36C16.0931 10.9196 13.6523 12.5594 12.0845 14.9186C10.5167 17.2778 9.95034 20.1632 10.5099 22.94C10.9943 25.115 12.3142 27.0123 14.1851 28.2228C16.0559 29.4332 18.3275 29.8596 20.5099 29.41C22.6345 29.0344 24.5324 27.8537 25.8083 26.114C27.0843 24.3742 27.6401 22.2093 27.3599 20.07C27.1445 18.4376 26.3082 16.951 25.0249 15.9193C23.7416 14.8876 22.11 14.3903 20.4694 14.5306C18.8288 14.671 17.3054 15.4383 16.216 16.673C15.1266 17.9076 14.5549 19.5147 14.6199 21.16C14.6617 22.2865 15.1441 23.3515 15.9633 24.1258C16.7825 24.9001 17.8729 25.3218 18.9999 25.3C20.1066 25.2555 21.1558 24.7953 21.938 24.0112C22.7203 23.2271 23.178 22.1768 23.2199 21.07C23.2368 20.5146 23.0379 19.9742 22.6651 19.5622C22.2922 19.1502 21.7743 18.8985 21.2199 18.86C20.9465 18.8281 20.6695 18.8508 20.4049 18.9267C20.1403 19.0026 19.8934 19.1304 19.6785 19.3025C19.4636 19.4745 19.285 19.6876 19.1531 19.9292C19.0212 20.1708 18.9385 20.4362 18.9099 20.71C18.9099 20.94 18.9099 21.26 18.7399 21.38C18.4299 21.65 17.9999 22.01 17.6799 21.96C17.3599 21.91 17.0599 21.44 16.8499 21.08C16.7749 20.8254 16.7749 20.5546 16.8499 20.3C17.0279 19.2532 17.5922 18.3112 18.4313 17.6604C19.2703 17.0096 20.323 16.6973 21.3812 16.7853C22.4395 16.8733 23.4261 17.3551 24.1462 18.1355C24.8663 18.916 25.2673 19.9382 25.2699 21C25.2287 22.6475 24.5506 24.2149 23.3781 25.3729C22.2056 26.5309 20.6299 27.1895 18.982 27.2102C17.3341 27.2309 15.7424 26.6122 14.5411 25.484C13.3398 24.3558 12.6226 22.8059 12.5399 21.16C12.5271 19.1734 13.2008 17.2433 14.4472 15.6963C15.6936 14.1492 17.4361 13.0802 19.3799 12.67C21.3834 12.2925 23.4559 12.6459 25.221 13.6661C26.9861 14.6863 28.3269 16.3056 28.9999 18.23C30.8699 23.69 27.1099 30.04 21.2499 31.31L20.4499 31.51Z" fill="#0072BB"/>
</svg>
