<svg width="51" height="51" viewBox="0 0 51 51" fill="none" xmlns="http://www.w3.org/2000/svg">
<path d="M9.06995 24C9.246 22.982 9.50008 21.979 9.82995 21C10.5799 19.25 11.4699 17.56 12.3499 15.87C13.0778 14.4538 14.2226 13.2949 15.6299 12.55C17.2899 11.66 18.9299 10.74 20.6299 9.94001C21.9817 9.26818 23.506 9.02402 24.9999 9.24001C26.9399 9.54001 28.9099 9.73001 30.8099 10.24C32.0173 10.543 33.1481 11.0948 34.1299 11.86C35.6253 13.1637 37.0506 14.5457 38.3999 16C39.6138 17.212 40.3851 18.7969 40.5899 20.5C40.8899 22.8 41.1633 25.1 41.4099 27.4C41.4491 27.7589 41.3904 28.1218 41.2399 28.45C40.0399 30.93 38.9099 33.45 37.5399 35.86C36.9181 36.7735 36.0707 37.5106 35.0799 38C32.7399 39.28 30.5599 41 27.8099 41.29C26.2713 41.3844 24.7269 41.2938 23.2099 41.02C21.2099 40.71 19.0399 40.67 17.3299 39.38C14.9247 37.5978 12.8184 35.4442 11.0899 33C10.7295 32.4838 10.4808 31.8979 10.3599 31.28C9.88995 28.9 9.49995 26.46 9.06995 24ZM39.2599 26.49C39.1699 25.76 39.1199 25.11 39.0099 24.49C38.7399 22.9 38.7499 21.19 38.0999 19.78C36.6799 16.71 34.0999 14.59 31.3499 12.7C28.8399 12.28 26.3499 11.7 23.7999 11.49C21.7999 11.35 16.0699 14.31 15.0099 16.03C13.7514 18.247 12.6066 20.5266 11.5799 22.86C11.438 23.2222 11.3899 23.6143 11.4399 24C11.6299 25.62 11.9399 27.23 12.0899 28.85C12.1701 29.8617 12.45 30.8474 12.9135 31.7502C13.3769 32.6531 14.0147 33.4551 14.7899 34.11C15.6399 34.86 16.4199 35.69 17.1999 36.51C18.2377 37.6022 19.617 38.3077 21.1099 38.51C22.1099 38.66 23.1099 38.92 24.1099 39.01C25.4099 39.12 26.8699 39.49 27.9899 39.01C30.3579 37.9793 32.665 36.8141 34.8999 35.52C35.2128 35.3408 35.4691 35.0775 35.6399 34.76C36.7799 32.51 37.9199 30.29 38.9999 28C39.161 27.4986 39.2486 26.9765 39.2599 26.45V26.49Z" fill="#0072BB"/>
<path d="M31.66 30.12C31.8751 30.1106 32.0899 30.1447 32.2915 30.2202C32.4931 30.2958 32.6774 30.4112 32.8333 30.5597C32.9892 30.7081 33.1136 30.8865 33.1989 31.0842C33.2843 31.2819 33.3288 31.4947 33.33 31.71C33.334 31.9244 33.2953 32.1375 33.2163 32.3369C33.1373 32.5362 33.0195 32.7179 32.8697 32.8714C32.72 33.0249 32.5412 33.1471 32.3439 33.231C32.1465 33.3149 31.9344 33.3587 31.72 33.36C31.5072 33.3639 31.2958 33.3259 31.0977 33.2482C30.8997 33.1704 30.7189 33.0544 30.5657 32.9067C30.4125 32.7591 30.2898 32.5827 30.2048 32.3877C30.1197 32.1926 30.0739 31.9827 30.07 31.77C30.066 31.5573 30.104 31.3458 30.1818 31.1478C30.2596 30.9497 30.3756 30.7689 30.5233 30.6157C30.6709 30.4625 30.8473 30.3398 31.0423 30.2548C31.2374 30.1697 31.4472 30.1239 31.66 30.12V30.12Z" fill="#0072BB"/>
<path d="M29 25.29C29.0027 25.5057 28.9621 25.7197 28.8805 25.9193C28.7989 26.119 28.678 26.3002 28.5251 26.4522C28.3721 26.6042 28.1901 26.724 27.99 26.8044C27.7899 26.8847 27.5756 26.924 27.36 26.92C26.9266 26.9045 26.516 26.7221 26.2141 26.4108C25.9122 26.0996 25.7423 25.6836 25.74 25.25C25.7626 24.8324 25.942 24.4386 26.2423 24.1475C26.5427 23.8564 26.9418 23.6895 27.36 23.68C27.5747 23.6732 27.7885 23.71 27.9885 23.7881C28.1886 23.8663 28.3707 23.9841 28.524 24.1346C28.6773 24.285 28.7985 24.465 28.8803 24.6636C28.9621 24.8622 29.0028 25.0753 29 25.29Z" fill="#0072BB"/>
<path d="M22.5899 31.75C22.59 31.9648 22.5471 32.1775 22.4637 32.3755C22.3803 32.5735 22.2581 32.7528 22.1043 32.9028C21.9506 33.0528 21.7683 33.1706 21.5684 33.2491C21.3684 33.3276 21.1547 33.3653 20.9399 33.36C20.5103 33.36 20.0982 33.1893 19.7944 32.8855C19.4906 32.5817 19.3199 32.1696 19.3199 31.74C19.3199 31.3103 19.4906 30.8983 19.7944 30.5945C20.0982 30.2907 20.5103 30.12 20.9399 30.12C21.1568 30.1132 21.3727 30.1505 21.5747 30.2298C21.7766 30.309 21.9604 30.4285 22.1147 30.581C22.269 30.7334 22.3907 30.9157 22.4724 31.1166C22.5541 31.3176 22.5941 31.5331 22.5899 31.75V31.75Z" fill="#0072BB"/>
<path d="M20.43 21.12C20.4042 21.541 20.2132 21.9347 19.8986 22.2156C19.584 22.4966 19.1712 22.6419 18.75 22.62C18.4275 22.6072 18.1162 22.4983 17.856 22.3074C17.5958 22.1165 17.3986 21.8522 17.2896 21.5485C17.1805 21.2447 17.1647 20.9153 17.2442 20.6025C17.3236 20.2897 17.4947 20.0078 17.7354 19.7929C17.9761 19.5779 18.2756 19.4398 18.5953 19.3961C18.9151 19.3525 19.2406 19.4054 19.5301 19.548C19.8196 19.6906 20.06 19.9164 20.2203 20.1965C20.3806 20.4766 20.4536 20.7981 20.43 21.12V21.12Z" fill="#0072BB"/>
<path d="M29.54 15.08C29.7562 15.0813 29.97 15.1253 30.1691 15.2096C30.3683 15.2939 30.5488 15.4167 30.7003 15.5709C30.8518 15.7252 30.9712 15.9079 31.0519 16.1086C31.1325 16.3092 31.1726 16.5238 31.17 16.74C31.17 17.1617 31.0024 17.5661 30.7043 17.8643C30.4061 18.1625 30.0017 18.33 29.58 18.33C29.3558 18.3476 29.1305 18.3186 28.9181 18.245C28.7057 18.1713 28.5109 18.0544 28.3458 17.9018C28.1808 17.7492 28.0491 17.5641 27.959 17.3581C27.8689 17.1522 27.8224 16.9298 27.8224 16.705C27.8224 16.4802 27.8689 16.2578 27.959 16.0518C28.0491 15.8459 28.1808 15.6608 28.3458 15.5082C28.5109 15.3555 28.7057 15.2387 28.9181 15.165C29.1305 15.0914 29.3558 15.0624 29.58 15.08H29.54Z" fill="#0072BB"/>
</svg>
