<svg width="51" height="51" viewBox="0 0 51 51" fill="none" xmlns="http://www.w3.org/2000/svg">
<path d="M41.14 24.1H26.4V9.36001C26.4 9.05501 26.2788 8.7625 26.0631 8.54683C25.8475 8.33117 25.555 8.21001 25.25 8.21001C24.945 8.21001 24.6525 8.33117 24.4368 8.54683C24.2211 8.7625 24.1 9.05501 24.1 9.36001V24.1H9.35996C9.05496 24.1 8.76246 24.2212 8.54679 24.4368C8.33112 24.6525 8.20996 24.945 8.20996 25.25C8.20996 25.555 8.33112 25.8475 8.54679 26.0632C8.76246 26.2788 9.05496 26.4 9.35996 26.4H24.1V41.14C24.1 41.445 24.2211 41.7375 24.4368 41.9532C24.6525 42.1688 24.945 42.29 25.25 42.29C25.555 42.29 25.8475 42.1688 26.0631 41.9532C26.2788 41.7375 26.4 41.445 26.4 41.14V26.4H41.14C41.445 26.4 41.7375 26.2788 41.9531 26.0632C42.1688 25.8475 42.29 25.555 42.29 25.25C42.29 24.945 42.1688 24.6525 41.9531 24.4368C41.7375 24.2212 41.445 24.1 41.14 24.1V24.1Z" fill="#0072BB"/>
</svg>
