<svg width="35" height="35" viewBox="0 0 35 35" fill="none" xmlns="http://www.w3.org/2000/svg">
<path fill-rule="evenodd" clip-rule="evenodd" d="M19.9387 22.4641C18.9522 22.9932 17.8271 23.2929 16.6327 23.2929C12.7302 23.2929 9.56665 20.0933 9.56665 16.1465C9.56665 12.1996 12.7302 9 16.6327 9C20.5351 9 23.6987 12.1996 23.6987 16.1465C23.6987 17.8477 23.1109 19.4101 22.1296 20.6373L25.0194 23.56C25.5713 24.1182 25.5713 25.0232 25.0194 25.5814C24.4676 26.1395 23.5728 26.1395 23.0209 25.5814L19.9387 22.4641ZM20.8723 16.1465C20.8723 18.5146 18.9742 20.4343 16.6327 20.4343C14.2912 20.4343 12.3931 18.5146 12.3931 16.1465C12.3931 13.7783 14.2912 11.8586 16.6327 11.8586C18.9742 11.8586 20.8723 13.7783 20.8723 16.1465Z" fill="#0072BB"/>
</svg>
