<svg width="51" height="51" viewBox="0 0 51 51" fill="none" xmlns="http://www.w3.org/2000/svg">
<path d="M33.92 27.63C33.92 28.92 33.92 30.19 33.92 31.46C33.92 34.19 32.84 36.39 30.26 37.56C29.2834 37.9798 28.2329 38.2008 27.17 38.21C23.17 38.28 19.1 38.21 15.06 38.21C14.166 38.2622 13.2711 38.1248 12.434 37.8067C11.597 37.4886 10.8366 36.997 10.2029 36.3643C9.56927 35.7316 9.07658 34.972 8.75724 34.1353C8.43789 33.2987 8.2991 32.404 8.34998 31.51C8.34998 26.02 8.34998 20.51 8.34998 15.05C8.34998 13.35 9.08998 12.62 10.81 12.62C19.4766 12.62 28.1433 12.62 36.81 12.62C38.7699 12.429 40.7255 13.0245 42.2464 14.2754C43.7673 15.5262 44.729 17.3301 44.92 19.29C45.1109 21.25 44.5155 23.2055 43.2646 24.7264C42.0138 26.2473 40.2099 27.209 38.25 27.4C36.84 27.55 35.42 27.56 33.92 27.63ZM17.92 14.78C17.69 17.57 17.69 17.57 19.83 19.18C19.8724 19.2189 19.9194 19.2525 19.97 19.28C20.334 19.5141 20.6282 19.842 20.8218 20.2291C21.0153 20.6162 21.1011 21.0483 21.07 21.48C21.07 22.85 21.02 24.21 20.95 25.58C20.9636 25.8378 20.9245 26.0957 20.8351 26.3379C20.7457 26.58 20.6079 26.8015 20.4301 26.9886C20.2523 27.1758 20.0382 27.3248 19.8009 27.4264C19.5637 27.5281 19.3081 27.5804 19.05 27.58C17.53 27.64 16.05 27.58 14.51 27.58C14.2443 27.5913 13.9792 27.5473 13.7314 27.4508C13.4836 27.3543 13.2586 27.2074 13.0706 27.0194C12.8826 26.8314 12.7357 26.6063 12.6391 26.3586C12.5426 26.1108 12.4987 25.8457 12.51 25.58C12.51 24.9 12.51 24.22 12.51 23.53C12.62 19.75 12.1 20.47 15.21 18.13C15.43 17.96 15.7 17.7 15.72 17.47C15.78 16.6 15.72 15.72 15.72 14.83H10.45C10.45 15.06 10.45 15.23 10.45 15.41C10.45 20.84 10.45 26.26 10.45 31.69C10.425 32.2901 10.5264 32.8887 10.7474 33.4471C10.9685 34.0055 11.3043 34.5113 11.7332 34.9318C12.1621 35.3522 12.6745 35.6778 13.2373 35.8877C13.8 36.0976 14.4005 36.1869 15 36.15H26.91C30.1 36.15 31.84 34.4 31.84 31.15C31.84 26.0233 31.84 20.8933 31.84 15.76V14.76L17.92 14.78ZM34 25.54C35.5116 25.538 37.0214 25.4378 38.52 25.24C39.6458 24.9951 40.655 24.3747 41.3819 23.4807C42.1087 22.5867 42.51 21.4722 42.52 20.32C42.5666 19.247 42.2891 18.1848 41.7237 17.2717C41.1584 16.3585 40.3312 15.6366 39.35 15.2C37.62 14.46 35.81 14.79 33.98 14.75L34 25.54ZM14.71 25.41H19C19 24.07 19 22.78 19 21.48C18.9805 21.2811 18.8835 21.0979 18.73 20.97C18.12 20.47 17.47 19.97 16.83 19.52C16.2 20 15.61 20.4 15.08 20.87C14.8651 21.0519 14.7289 21.3099 14.7 21.59C14.66 22.83 14.68 24.07 14.68 25.41H14.71Z" fill="#0072BB"/>
</svg>
