<svg width="51" height="51" viewBox="0 0 51 51" fill="none" xmlns="http://www.w3.org/2000/svg">
<path d="M38.6 11.6C38.3733 11.5345 38.1299 11.5607 37.9223 11.6729C37.7147 11.7851 37.5594 11.9744 37.49 12.2L35.75 18L32.85 14.41V11.11H33.53C33.7652 11.1048 33.9891 11.0076 34.1535 10.8394C34.318 10.6712 34.4101 10.4453 34.41 10.21C34.4197 10.1403 34.4197 10.0697 34.41 10L33.41 6.54C33.3561 6.35333 33.2431 6.18915 33.0881 6.07199C32.9331 5.95483 32.7443 5.89098 32.55 5.89H30C29.8921 5.25846 29.5655 4.68501 29.0774 4.27001C28.5892 3.85502 27.9707 3.62492 27.33 3.62H23.12C22.4794 3.62492 21.8608 3.85502 21.3727 4.27001C20.8846 4.68501 20.558 5.25846 20.45 5.89H18C17.8057 5.89098 17.617 5.95483 17.4619 6.07199C17.3069 6.18915 17.194 6.35333 17.14 6.54L16.14 10C16.0823 10.2281 16.1172 10.4697 16.2372 10.6721C16.3571 10.8744 16.5523 11.0211 16.78 11.08C16.853 11.0898 16.927 11.0898 17 11.08H17.68V14.34L14.77 18L13 12.2C12.9324 11.9732 12.7775 11.7826 12.5693 11.6701C12.3611 11.5576 12.1168 11.5324 11.89 11.6C11.6633 11.6676 11.4727 11.8226 11.3601 12.0307C11.2476 12.2389 11.2224 12.4832 11.29 12.71L13.51 20V43.52C13.4728 43.7057 13.4965 43.8984 13.5776 44.0696C13.6587 44.2407 13.7928 44.3811 13.96 44.47C17.5309 46.1392 21.4393 46.9606 25.38 46.87C29.223 46.9578 33.0367 46.1821 36.54 44.6C36.7196 44.5106 36.8637 44.3633 36.949 44.1818C37.0343 44.0003 37.0558 43.7953 37.01 43.6V20.1C37.02 20.027 37.02 19.953 37.01 19.88L39.18 12.71C39.2464 12.4859 39.223 12.2447 39.1148 12.0376C39.0065 11.8304 38.8219 11.6735 38.6 11.6ZM23.12 4.78H27.4C27.7251 4.78262 28.0409 4.88872 28.3016 5.08291C28.5623 5.2771 28.7544 5.54928 28.85 5.86H21.67C21.7656 5.54928 21.9577 5.2771 22.2184 5.08291C22.4792 4.88872 22.7949 4.78262 23.12 4.78V4.78ZM18.66 7.65H31.86L32.34 9.31999H18.18L18.66 7.65ZM19.26 15.25C19.3784 15.0868 19.4446 14.8915 19.45 14.69V11.11H31V14.69C30.9988 14.8944 31.0697 15.0926 31.2 15.25L34.71 19.59C31.711 20.7222 28.5253 21.2786 25.32 21.23C22.0498 21.2802 18.8005 20.6996 15.75 19.52L19.26 15.25ZM35.26 43.25C32.1381 44.5221 28.7907 45.148 25.42 45.09C21.9562 45.1459 18.5201 44.4641 15.34 43.09V24.37C17.4679 25.2374 19.712 25.7866 22 26V26C22.1485 26.008 22.2941 25.9566 22.4048 25.8572C22.5154 25.7578 22.5821 25.6185 22.59 25.47C22.598 25.3215 22.5466 25.1759 22.4472 25.0652C22.3478 24.9546 22.2085 24.8879 22.06 24.88C19.7008 24.6546 17.3939 24.0466 15.23 23.08V21.23C18.4692 22.4629 21.9147 23.0638 25.38 23C28.7364 23.0516 32.0732 22.4786 35.22 21.31L35.26 43.25Z" fill="#0072BB"/>
</svg>
