<svg width="51" height="51" viewBox="0 0 51 51" fill="none" xmlns="http://www.w3.org/2000/svg">
<path d="M15 27.41C15 24 15 20.6 15 17.19C14.9481 16.5658 15.0332 15.9378 15.2493 15.3499C15.4654 14.762 15.8074 14.2285 16.2512 13.7865C16.6951 13.3446 17.2301 13.005 17.8189 12.7914C18.4077 12.5778 19.0361 12.4954 19.66 12.55C23.66 12.55 27.63 12.55 31.57 12.55C32.1952 12.496 32.8246 12.5786 33.4148 12.792C34.0049 13.0054 34.5416 13.3445 34.9876 13.7858C35.4337 14.2272 35.7786 14.7602 35.9983 15.348C36.218 15.9357 36.3073 16.5643 36.26 17.19C36.26 24.03 36.26 30.8667 36.26 37.7C36.3071 38.3261 36.2177 38.955 35.9981 39.5432C35.7784 40.1314 35.4338 40.665 34.9879 41.1071C34.542 41.5492 34.0055 41.8892 33.4154 42.1038C32.8253 42.3184 32.1957 42.4024 31.57 42.35H19.63C19.0088 42.3982 18.3846 42.3112 17.8003 42.0949C17.216 41.8787 16.6855 41.5383 16.2454 41.0973C15.8054 40.6562 15.4661 40.125 15.2511 39.5403C15.0361 38.9555 14.9504 38.3311 15 37.71C15 34.28 15 30.84 15 27.41ZM34.2 27.51C34.2 24.04 34.2 20.58 34.2 17.11C34.2 15.41 33.41 14.63 31.69 14.63C27.63 14.63 23.57 14.63 19.51 14.63C17.83 14.63 17.08 15.38 17.08 17.08C17.08 23.98 17.08 30.88 17.08 37.78C17.08 39.54 17.82 40.27 19.57 40.27H31.57C33.47 40.27 34.21 39.53 34.21 37.64C34.16 34.26 34.16 30.89 34.16 27.51H34.2Z" fill="#0072BB"/>
<path d="M25.5399 10.36H19.5899C18.5899 10.36 18.1299 9.99999 18.1799 9.28999C18.2299 8.41999 18.8499 8.28999 19.5599 8.28999H31.5599C32.5599 8.28999 33.0299 8.65999 32.9699 9.35999C32.9099 10.21 32.3099 10.36 31.5799 10.36H25.5399Z" fill="#0072BB"/>
<path d="M24.53 37.23C23.5085 37.0157 22.5054 36.7214 21.53 36.35C20.6951 35.9679 19.9864 35.3558 19.487 34.5854C18.9875 33.815 18.718 32.9181 18.71 32C18.64 31.06 19 30.68 19.93 30.65C22.04 30.57 24.02 30.87 25.52 32.65C25.91 32.31 26.24 31.99 26.61 31.71C28.0578 30.7579 29.8073 30.3767 31.52 30.64C32.24 30.69 32.52 31.21 32.44 31.91C32.41 33.1371 31.9384 34.3122 31.1118 35.2197C30.2852 36.1271 29.159 36.706 27.94 36.85L26.69 37.01C26.51 37.82 26.87 39.01 25.55 39.01C24.23 39.01 24.65 37.89 24.53 37.23ZM21.05 32.8C21.2428 33.4548 21.6658 34.0178 22.241 34.3854C22.8162 34.7529 23.5048 34.9002 24.18 34.8C23.9681 34.1574 23.5411 33.6075 22.9709 33.2431C22.4006 32.8788 21.7222 32.7222 21.05 32.8V32.8ZM30.05 32.8C29.3778 32.7222 28.6994 32.8788 28.1292 33.2431C27.559 33.6075 27.1319 34.1574 26.92 34.8C27.5973 34.9081 28.2907 34.7656 28.8705 34.3993C29.4503 34.033 29.8767 33.468 30.07 32.81L30.05 32.8Z" fill="#0072BB"/>
<path d="M25.57 18.9C26.2507 18.1316 27.1077 17.54 28.0674 17.1759C29.0272 16.8119 30.061 16.6863 31.08 16.81C32.17 16.81 32.52 17.23 32.41 18.29C32.3682 19.5004 31.8786 20.6522 31.0362 21.5223C30.1938 22.3924 29.0584 22.919 27.85 23C26.1869 23.1792 24.5084 23.1591 22.85 22.94C21.6991 22.7514 20.6503 22.1663 19.8852 21.2862C19.12 20.406 18.6867 19.286 18.66 18.12C18.66 17.19 18.96 16.82 19.89 16.78C22.05 16.72 24 17.06 25.57 18.9ZM26.94 21C27.6121 21.095 28.2959 20.9453 28.8668 20.5781C29.4377 20.211 29.8576 19.6509 30.05 19C29.378 18.905 28.6941 19.0547 28.1232 19.4219C27.5523 19.789 27.1324 20.3491 26.94 21V21ZM24.22 21C24.0287 20.3401 23.6031 19.7728 23.0231 19.4045C22.4431 19.0363 21.7486 18.8924 21.07 19C21.2825 19.6464 21.7127 20.199 22.2871 20.5638C22.8615 20.9285 23.5447 21.0826 24.22 21V21Z" fill="#0072BB"/>
<path d="M25.64 25.74C26.3194 24.997 27.167 24.4277 28.1118 24.0797C29.0565 23.7317 30.0709 23.6152 31.07 23.74C32.2 23.74 32.53 24.15 32.4 25.29C32.3665 26.4764 31.9009 27.6097 31.0907 28.4771C30.2804 29.3444 29.1814 29.8859 28 30C26.337 30.1761 24.6592 30.1593 23 29.95C21.8586 29.7802 20.8127 29.2162 20.0437 28.3559C19.2747 27.4956 18.8312 26.3932 18.79 25.24C18.73 24.24 19.06 23.83 20.09 23.79C22.4 23.65 23.1 23.9 25.64 25.74ZM24.22 27.93C24.0325 27.2678 23.6077 26.6978 23.0267 26.3289C22.4456 25.9599 21.7491 25.818 21.07 25.93C21.2808 26.5775 21.7106 27.1313 22.2855 27.4963C22.8603 27.8612 23.5443 28.0146 24.22 27.93V27.93ZM26.91 27.93C27.5836 28.0276 28.2699 27.8791 28.8429 27.5118C29.4159 27.1444 29.8374 26.5829 30.03 25.93C29.3578 25.8533 28.6799 26.0116 28.1112 26.378C27.5425 26.7444 27.1181 27.2963 26.91 27.94V27.93Z" fill="#0072BB"/>
</svg>
