<svg width="51" height="51" viewBox="0 0 51 51" fill="none" xmlns="http://www.w3.org/2000/svg">
<path d="M27.5 43.86H22.91L22.64 43.8C21.26 43.65 19.88 43.57 18.51 43.34C17.549 43.1352 16.5485 43.2258 15.64 43.6C15.0081 43.8324 14.3173 43.8506 13.674 43.6518C13.0307 43.4531 12.4706 43.0484 12.08 42.5C11.6765 41.9712 11.4513 41.328 11.437 40.663C11.4226 39.9981 11.6197 39.3457 12 38.8C12.14 38.59 12.3 38.38 12.45 38.18C12.6518 37.9109 12.7982 37.6043 12.8806 37.2782C12.963 36.952 12.9798 36.6127 12.93 36.28C12.81 35.28 12.69 34.34 12.62 33.36C12.3931 30.6828 12.5649 27.9867 13.13 25.36C13.35 24.36 13.65 23.44 13.92 22.47H13.82C13.0513 22.2773 12.3818 21.8053 11.942 21.146C11.5022 20.4867 11.3236 19.6873 11.4409 18.9035C11.5582 18.1198 11.9631 17.4077 12.5767 16.9061C13.1902 16.4045 13.9685 16.1492 14.76 16.19H15.63C15.8 15.5 15.92 14.86 16.12 14.19C16.4539 12.936 17.0659 11.7733 17.9108 10.7882C18.7556 9.80315 19.8115 9.02106 21 8.5C22.7298 7.76273 24.6241 7.49704 26.49 7.73C28.1444 7.81484 29.7377 8.383 31.0725 9.36413C32.4074 10.3453 33.4252 11.6963 34 13.25C34.39 14.17 34.6 15.17 34.91 16.17H35.91C36.6279 16.1681 37.325 16.4106 37.8867 16.8578C38.4483 17.3049 38.841 17.9299 39 18.63C39 18.85 39.08 19.07 39.12 19.28V19.5C38.9889 20.0169 38.815 20.522 38.6 21.01C38.3908 21.3835 38.1041 21.708 37.7591 21.9615C37.4142 22.2151 37.0189 22.3919 36.6 22.48C36.8 23.13 37.02 23.75 37.19 24.38C38.095 28.0567 38.275 31.8745 37.72 35.62C37.5948 36.0549 37.5658 36.5118 37.6349 36.959C37.7039 37.4063 37.8695 37.8331 38.12 38.21C38.645 38.8093 38.9915 39.5437 39.12 40.33V40.75C39.0621 41.0883 38.9819 41.4223 38.88 41.75C38.7265 42.1663 38.4874 42.5458 38.178 42.8639C37.8687 43.182 37.496 43.4316 37.084 43.5965C36.6721 43.7615 36.2302 43.8381 35.7868 43.8215C35.3434 43.8049 34.9084 43.6953 34.51 43.5C33.9484 43.2271 33.3157 43.1362 32.7 43.24C31.7 43.41 30.63 43.56 29.6 43.68C28.9 43.75 28.2 43.79 27.5 43.86ZM35.87 31.27C35.76 29.89 35.69 28.6 35.53 27.32C35.3421 25.7647 34.9278 24.2453 34.3 22.81C34.22 22.64 34.15 22.53 33.92 22.53H16.57C16.4908 22.5177 16.4099 22.5355 16.3433 22.5799C16.2766 22.6244 16.2291 22.6922 16.21 22.77C16 23.35 15.75 23.91 15.58 24.49C14.6091 28.0434 14.4113 31.7637 15 35.4C15.173 36.1503 15.1729 36.9302 14.9997 37.6804C14.8264 38.4306 14.4845 39.1316 14 39.73C13.8984 39.8566 13.8112 39.9941 13.74 40.14C13.6628 40.2765 13.6187 40.4293 13.6114 40.586C13.6042 40.7427 13.6338 40.8989 13.6981 41.042C13.7623 41.1851 13.8593 41.311 13.9813 41.4097C14.1032 41.5084 14.2466 41.577 14.4 41.61C14.6997 41.6465 15.0037 41.6016 15.28 41.48C16.1084 41.1132 17.0209 40.9784 17.92 41.09C19.61 41.31 21.3 41.58 22.99 41.68C25.8795 41.8734 28.7817 41.7358 31.64 41.27C32.4002 41.054 33.1966 40.9961 33.98 41.1C34.49 41.22 34.98 41.41 35.48 41.58C35.6885 41.6631 35.9175 41.6799 36.1359 41.628C36.3542 41.5761 36.5512 41.4581 36.7 41.29C36.8455 41.1261 36.9332 40.9188 36.9495 40.7002C36.9657 40.4816 36.9097 40.2637 36.79 40.08C36.6584 39.8567 36.5113 39.6429 36.35 39.44C35.9673 38.9619 35.6902 38.4081 35.5368 37.8153C35.3834 37.2224 35.3572 36.6037 35.46 36C35.6 34.4 35.73 32.8 35.87 31.27ZM32.64 16.15C32.55 15.74 32.47 15.35 32.36 14.97C32.097 13.8967 31.5708 12.9058 30.8287 12.087C30.0867 11.2681 29.1523 10.6471 28.11 10.28C26.8239 9.8462 25.4548 9.71614 24.11 9.9C22.9342 9.98306 21.8032 10.3843 20.8379 11.0607C19.8726 11.7371 19.1094 12.6632 18.63 13.74C18.2656 14.5016 18.0195 15.3142 17.9 16.15H32.64ZM25.25 20.42H35.93C36.0693 20.4123 36.2057 20.3773 36.3314 20.3168C36.457 20.2563 36.5696 20.1716 36.6625 20.0676C36.7554 19.9635 36.8268 19.8422 36.8727 19.7104C36.9186 19.5787 36.9381 19.4393 36.93 19.3C36.92 19.1562 36.8812 19.0159 36.8161 18.8873C36.751 18.7587 36.6608 18.6444 36.5508 18.5512C36.4409 18.458 36.3134 18.3878 36.1758 18.3446C36.0383 18.3015 35.8935 18.2863 35.75 18.3H14.54C14.4008 18.3131 14.2655 18.3536 14.142 18.419C14.0184 18.4844 13.9089 18.5735 13.8197 18.6812C13.6397 18.8987 13.5535 19.1789 13.58 19.46C13.6065 19.7411 13.7436 20.0002 13.9612 20.1802C14.1787 20.3603 14.4589 20.4465 14.74 20.42H25.25Z" fill="#0072BB"/>
<path d="M17.84 27.86H32.63V36.34H17.84V27.86ZM20 29.99V34.21H30.52V29.99H20Z" fill="#0072BB"/>
</svg>
